<svg xmlns="http://www.w3.org/2000/svg" xmlns:xlink="http://www.w3.org/1999/xlink" width="4000" zoomAndPan="magnify" viewBox="0 0 3000 2999.999989" height="4000" preserveAspectRatio="xMidYMid meet" version="1.0"><defs><clipPath id="9b58916801"><path d="M 144.375 66.875 L 2887 66.875 L 2887 2809.625 L 144.375 2809.625 Z M 144.375 66.875 " clip-rule="nonzero"/></clipPath><clipPath id="e2931fd40f"><path d="M 176.875 99.375 L 2854.375 99.375 L 2854.375 2776.875 L 176.875 2776.875 Z M 176.875 99.375 " clip-rule="nonzero"/></clipPath></defs><g clip-path="url(#9b58916801)"><path fill="#2b2b2b" d="M 2201.242188 2809.367188 L 829.996094 2809.367188 C 452.90625 2809.367188 144.375 2500.835938 144.375 2123.746094 L 144.375 752.5 C 144.375 375.40625 452.90625 66.875 829.996094 66.875 L 2201.242188 66.875 C 2578.335938 66.875 2886.867188 375.40625 2886.867188 752.5 L 2886.867188 2123.746094 C 2886.867188 2500.835938 2578.335938 2809.367188 2201.242188 2809.367188 Z M 2201.242188 2809.367188 " fill-opacity="1" fill-rule="nonzero"/></g><path fill="#ffffff" d="M 951.695312 654.796875 L 951.695312 1423.835938 L 1325.359375 1040.460938 C 1325.359375 1040.460938 1325.359375 1040.460938 1325.933594 1040.460938 C 1325.933594 1040.460938 1325.933594 1040.460938 1325.933594 1039.886719 L 1326.503906 1039.316406 C 1327.074219 1038.746094 1327.644531 1038.175781 1328.21875 1038.175781 C 1329.359375 1037.03125 1330.503906 1036.460938 1331.644531 1035.890625 C 1332.21875 1035.316406 1332.789062 1035.316406 1333.359375 1034.746094 C 1342.5 1030.175781 1353.355469 1030.175781 1362.5 1034.746094 C 1363.070312 1034.746094 1363.640625 1035.316406 1364.214844 1035.890625 C 1365.355469 1036.460938 1366.5 1037.601562 1367.640625 1038.175781 C 1368.210938 1038.746094 1368.785156 1038.746094 1369.355469 1039.316406 L 1369.925781 1039.886719 C 1369.925781 1039.886719 1369.925781 1039.886719 1369.925781 1040.460938 C 1369.925781 1040.460938 1369.925781 1040.460938 1370.496094 1040.460938 L 1704.167969 1383.269531 L 2037.835938 1040.460938 C 2037.835938 1040.460938 2037.835938 1040.460938 2038.410156 1040.460938 C 2038.410156 1040.460938 2038.410156 1040.460938 2038.410156 1039.886719 L 2038.980469 1039.316406 C 2039.550781 1038.746094 2040.125 1038.175781 2040.695312 1038.175781 L 2041.265625 1037.601562 C 2041.835938 1037.03125 2042.410156 1036.460938 2042.980469 1036.460938 C 2042.980469 1036.460938 2043.550781 1036.460938 2043.550781 1035.890625 C 2044.121094 1035.316406 2044.695312 1035.316406 2045.835938 1034.746094 C 2046.980469 1034.175781 2048.121094 1033.605469 2049.265625 1033.03125 C 2049.835938 1033.03125 2050.40625 1032.460938 2051.550781 1032.460938 C 2058.976562 1030.175781 2067.546875 1030.746094 2074.976562 1034.746094 C 2075.546875 1035.316406 2076.6875 1035.316406 2077.261719 1035.890625 C 2077.261719 1035.890625 2077.261719 1035.890625 2077.832031 1035.890625 C 2078.976562 1036.460938 2079.546875 1037.03125 2080.117188 1037.601562 C 2080.6875 1038.175781 2081.261719 1038.746094 2081.832031 1039.316406 L 2082.402344 1039.886719 C 2082.402344 1039.886719 2082.402344 1039.886719 2082.402344 1040.460938 C 2082.402344 1040.460938 2082.402344 1040.460938 2082.972656 1040.460938 L 2456.640625 1423.835938 L 2456.640625 654.796875 Z M 1703.597656 967.898438 C 1651.601562 967.898438 1609.324219 925.617188 1609.324219 873.625 C 1609.324219 821.632812 1651.601562 779.351562 1703.597656 779.351562 C 1755.589844 779.351562 1797.867188 821.632812 1797.867188 873.625 C 1797.867188 925.617188 1755.589844 967.898438 1703.597656 967.898438 Z M 1703.597656 967.898438 " fill-opacity="1" fill-rule="nonzero"/><path fill="#ffffff" d="M 2456.066406 1513.539062 L 2456.066406 1845.496094 L 951.695312 1845.496094 L 951.695312 1513.539062 L 1347.644531 1106.738281 L 1660.171875 1427.265625 L 1610.464844 1478.6875 C 1598.46875 1491.257812 1598.46875 1510.683594 1611.035156 1523.253906 C 1617.320312 1528.964844 1624.75 1532.394531 1632.75 1532.394531 C 1640.746094 1532.394531 1649.316406 1528.964844 1655.03125 1522.679688 L 1725.878906 1450.121094 L 2060.121094 1106.738281 Z M 2456.066406 1513.539062 " fill-opacity="1" fill-rule="nonzero"/><path fill="#ffffff" d="M 2330.371094 1908.34375 L 2330.371094 1971.191406 L 826 1971.191406 L 826 779.921875 L 888.847656 779.921875 L 888.847656 1876.921875 C 888.847656 1894.058594 903.132812 1908.34375 920.273438 1908.34375 Z M 2330.371094 1908.34375 " fill-opacity="1" fill-rule="nonzero"/><path fill="#ffffff" d="M 2205.242188 2033.46875 L 2205.242188 2096.320312 L 700.871094 2096.320312 L 700.871094 905.050781 L 763.722656 905.050781 L 763.722656 2002.046875 C 763.722656 2019.1875 778.003906 2033.46875 795.144531 2033.46875 Z M 2205.242188 2033.46875 " fill-opacity="1" fill-rule="nonzero"/><path fill="#ffffff" d="M 2079.546875 2159.167969 L 2079.546875 2222.015625 L 575.175781 2222.015625 L 575.175781 1030.746094 L 638.023438 1030.746094 L 638.023438 2127.742188 C 638.023438 2144.882812 652.308594 2159.167969 669.449219 2159.167969 Z M 2079.546875 2159.167969 " fill-opacity="1" fill-rule="nonzero"/><g clip-path="url(#e2931fd40f)"><path fill="#4293cf" d="M 2185 2776.875 L 846.25 2776.875 C 478.09375 2776.875 176.875 2475.65625 176.875 2107.5 L 176.875 768.75 C 176.875 400.59375 478.09375 99.375 846.25 99.375 L 2185 99.375 C 2553.15625 99.375 2854.375 400.59375 2854.375 768.75 L 2854.375 2107.5 C 2854.375 2475.65625 2553.15625 2776.875 2185 2776.875 Z M 2185 2776.875 " fill-opacity="1" fill-rule="nonzero"/></g><path fill="#ffffff" d="M 965.0625 673.363281 L 965.0625 1424.179688 L 1329.875 1049.886719 C 1329.875 1049.886719 1329.875 1049.886719 1330.429688 1049.886719 C 1330.429688 1049.886719 1330.429688 1049.886719 1330.429688 1049.328125 L 1330.988281 1048.773438 C 1331.546875 1048.214844 1332.105469 1047.65625 1332.664062 1047.65625 C 1333.777344 1046.539062 1334.894531 1045.984375 1336.007812 1045.425781 C 1336.566406 1044.867188 1337.125 1044.867188 1337.683594 1044.308594 C 1346.609375 1039.847656 1357.207031 1039.847656 1366.132812 1044.308594 C 1366.6875 1044.308594 1367.246094 1044.867188 1367.804688 1045.425781 C 1368.921875 1045.984375 1370.035156 1047.097656 1371.152344 1047.65625 C 1371.710938 1048.214844 1372.265625 1048.214844 1372.824219 1048.773438 L 1373.382812 1049.328125 C 1373.382812 1049.328125 1373.382812 1049.328125 1373.382812 1049.886719 C 1373.382812 1049.886719 1373.382812 1049.886719 1373.941406 1049.886719 L 1699.703125 1384.574219 L 2025.464844 1049.886719 C 2025.464844 1049.886719 2025.464844 1049.886719 2026.023438 1049.886719 C 2026.023438 1049.886719 2026.023438 1049.886719 2026.023438 1049.328125 L 2026.582031 1048.773438 C 2027.140625 1048.214844 2027.695312 1047.65625 2028.253906 1047.65625 L 2028.8125 1047.097656 C 2029.371094 1046.539062 2029.929688 1045.984375 2030.484375 1045.984375 C 2030.484375 1045.984375 2031.042969 1045.984375 2031.042969 1045.425781 C 2031.601562 1044.867188 2032.160156 1044.867188 2033.273438 1044.308594 C 2034.390625 1043.75 2035.507812 1043.195312 2036.621094 1042.636719 C 2037.179688 1042.636719 2037.738281 1042.078125 2038.851562 1042.078125 C 2046.105469 1039.847656 2054.472656 1040.40625 2061.722656 1044.308594 C 2062.28125 1044.867188 2063.398438 1044.867188 2063.953125 1045.425781 C 2063.953125 1045.425781 2063.953125 1045.425781 2064.511719 1045.425781 C 2065.628906 1045.984375 2066.1875 1046.539062 2066.742188 1047.097656 C 2067.300781 1047.65625 2067.859375 1048.214844 2068.417969 1048.773438 L 2068.976562 1049.328125 C 2068.976562 1049.328125 2068.976562 1049.328125 2068.976562 1049.886719 C 2068.976562 1049.886719 2068.976562 1049.886719 2069.53125 1049.886719 L 2434.34375 1424.179688 L 2434.34375 673.363281 Z M 1699.144531 979.046875 C 1648.382812 979.046875 1607.105469 937.765625 1607.105469 887.007812 C 1607.105469 836.246094 1648.382812 794.96875 1699.144531 794.96875 C 1749.90625 794.96875 1791.183594 836.246094 1791.183594 887.007812 C 1791.183594 937.765625 1749.90625 979.046875 1699.144531 979.046875 Z M 1699.144531 979.046875 " fill-opacity="1" fill-rule="nonzero"/><path fill="#ffffff" d="M 2433.785156 1511.757812 L 2433.785156 1835.84375 L 965.0625 1835.84375 L 965.0625 1511.757812 L 1351.628906 1114.59375 L 1656.75 1427.527344 L 1608.222656 1477.730469 C 1596.507812 1490 1596.507812 1508.96875 1608.78125 1521.238281 C 1614.914062 1526.816406 1622.167969 1530.164062 1629.976562 1530.164062 C 1637.785156 1530.164062 1646.152344 1526.816406 1651.730469 1520.679688 L 1720.898438 1449.839844 L 2047.21875 1114.59375 Z M 2433.785156 1511.757812 " fill-opacity="1" fill-rule="nonzero"/><path fill="#ffffff" d="M 2311.066406 1897.203125 L 2311.066406 1958.5625 L 842.34375 1958.5625 L 842.34375 795.523438 L 903.703125 795.523438 L 903.703125 1866.523438 C 903.703125 1883.257812 917.648438 1897.203125 934.382812 1897.203125 Z M 2311.066406 1897.203125 " fill-opacity="1" fill-rule="nonzero"/><path fill="#ffffff" d="M 2188.90625 2019.367188 L 2188.90625 2080.726562 L 720.183594 2080.726562 L 720.183594 917.6875 L 781.542969 917.6875 L 781.542969 1988.6875 C 781.542969 2005.421875 795.488281 2019.367188 812.222656 2019.367188 Z M 2188.90625 2019.367188 " fill-opacity="1" fill-rule="nonzero"/><path fill="#ffffff" d="M 2066.1875 2142.085938 L 2066.1875 2203.445312 L 597.464844 2203.445312 L 597.464844 1040.40625 L 658.824219 1040.40625 L 658.824219 2111.40625 C 658.824219 2128.140625 672.769531 2142.085938 689.503906 2142.085938 Z M 2066.1875 2142.085938 " fill-opacity="1" fill-rule="nonzero"/></svg>