<svg xmlns="http://www.w3.org/2000/svg" xmlns:xlink="http://www.w3.org/1999/xlink" width="4000" zoomAndPan="magnify" viewBox="0 0 3000 2999.999989" height="4000" preserveAspectRatio="xMidYMid meet" version="1.0"><path fill="#84ca9b" d="M 2884.257812 898.148438 L 2013.890625 2916.667969 C 1986.109375 2972.222656 1930.554688 3000 1875 2972.222656 L 180.554688 2240.742188 C 125 2212.964844 97.222656 2157.40625 125 2101.851562 L 995.371094 83.332031 C 1023.148438 27.777344 1078.703125 0 1134.257812 27.777344 L 2819.445312 759.257812 C 2884.257812 777.777344 2902.777344 842.59375 2884.257812 898.148438 Z M 2884.257812 898.148438 " fill-opacity="1" fill-rule="nonzero"/><path fill="#b9b9b9" d="M 2884.257812 898.148438 L 2541.667969 1694.445312 L 2106.480469 2685.183594 L 2013.890625 2916.667969 C 1986.109375 2972.222656 1930.554688 3000 1875 2972.222656 L 1208.332031 2685.183594 L 402.777344 2333.332031 L 189.816406 2240.742188 C 134.257812 2212.960938 106.480469 2157.40625 134.257812 2101.851562 L 402.777344 1472.222656 L 958.332031 185.183594 L 995.371094 83.332031 C 1023.148438 27.777344 1078.703125 0 1134.257812 27.777344 L 1504.628906 185.183594 L 2532.40625 629.628906 L 2819.445312 759.257812 C 2884.257812 777.777344 2902.777344 842.59375 2884.257812 898.148438 Z M 2884.257812 898.148438 " fill-opacity="1" fill-rule="nonzero"/><path fill="#e6e6e5" d="M 2495.371094 333.332031 L 2495.371094 2527.777344 C 2495.371094 2583.332031 2449.074219 2638.890625 2384.257812 2638.890625 L 550.925781 2638.890625 C 495.371094 2638.890625 439.816406 2592.59375 439.816406 2527.777344 L 439.816406 333.332031 C 439.816406 277.777344 486.109375 222.222656 550.925781 222.222656 L 2384.257812 222.222656 C 2449.074219 231.480469 2495.371094 277.777344 2495.371094 333.332031 Z M 2495.371094 333.332031 " fill-opacity="1" fill-rule="nonzero"/><path fill="#3789c9" d="M 2291.667969 1175.925781 L 2291.667969 2324.074219 C 2291.667969 2370.371094 2254.628906 2407.40625 2208.332031 2407.40625 L 736.109375 2407.40625 C 689.816406 2407.40625 652.777344 2370.371094 652.777344 2324.074219 L 652.777344 1175.925781 C 652.777344 1129.628906 689.816406 1092.59375 736.109375 1092.59375 L 2199.074219 1092.59375 C 2245.371094 1092.59375 2291.667969 1129.628906 2291.667969 1175.925781 Z M 2291.667969 1175.925781 " fill-opacity="1" fill-rule="nonzero"/><path fill="#4c9fd8" d="M 736.109375 1175.925781 L 2208.332031 1175.925781 L 2208.332031 2046.296875 L 736.109375 2046.296875 Z M 736.109375 1175.925781 " fill-opacity="1" fill-rule="nonzero"/><path fill="#36454d" d="M 2106.480469 2046.296875 L 1171.296875 2046.296875 L 1421.296875 1629.628906 L 1541.667969 1416.667969 L 1643.519531 1379.628906 L 1736.109375 1416.667969 Z M 2106.480469 2046.296875 " fill-opacity="1" fill-rule="nonzero"/><path fill="#ffffff" d="M 1736.109375 1416.667969 L 1643.519531 1379.628906 L 1541.667969 1425.925781 L 1625 1277.777344 C 1634.257812 1268.519531 1652.777344 1268.519531 1652.777344 1277.777344 Z M 1736.109375 1416.667969 " fill-opacity="1" fill-rule="nonzero"/><path fill="#4f616d" d="M 1662.039062 2046.296875 L 828.703125 2046.296875 L 1171.296875 1472.222656 L 1245.371094 1453.703125 L 1328.703125 1472.222656 L 1421.296875 1629.628906 Z M 1662.039062 2046.296875 " fill-opacity="1" fill-rule="nonzero"/><path fill="#ffffff" d="M 1328.703125 1472.222656 L 1245.371094 1453.703125 L 1162.035156 1472.222656 L 1226.851562 1361.109375 C 1236.109375 1351.851562 1254.628906 1351.851562 1254.628906 1361.109375 Z M 1328.703125 1472.222656 " fill-opacity="1" fill-rule="nonzero"/><path fill="#ffffff" d="M 2087.960938 1361.109375 C 2087.960938 1362.625 2087.925781 1364.140625 2087.851562 1365.65625 C 2087.777344 1367.167969 2087.664062 1368.679688 2087.515625 1370.1875 C 2087.367188 1371.695312 2087.183594 1373.199219 2086.960938 1374.695312 C 2086.738281 1376.195312 2086.480469 1377.6875 2086.183594 1379.175781 C 2085.886719 1380.660156 2085.554688 1382.140625 2085.1875 1383.609375 C 2084.820312 1385.078125 2084.414062 1386.539062 2083.976562 1387.988281 C 2083.535156 1389.4375 2083.0625 1390.878906 2082.550781 1392.304688 C 2082.039062 1393.730469 2081.496094 1395.144531 2080.914062 1396.542969 C 2080.335938 1397.945312 2079.71875 1399.328125 2079.074219 1400.699219 C 2078.425781 1402.070312 2077.742188 1403.421875 2077.03125 1404.757812 C 2076.316406 1406.09375 2075.570312 1407.414062 2074.789062 1408.714844 C 2074.011719 1410.011719 2073.199219 1411.292969 2072.359375 1412.550781 C 2071.515625 1413.8125 2070.644531 1415.050781 2069.742188 1416.269531 C 2068.839844 1417.484375 2067.90625 1418.679688 2066.945312 1419.851562 C 2065.984375 1421.023438 2064.996094 1422.167969 2063.976562 1423.292969 C 2062.957031 1424.414062 2061.914062 1425.511719 2060.84375 1426.582031 C 2059.773438 1427.65625 2058.675781 1428.699219 2057.550781 1429.71875 C 2056.429688 1430.734375 2055.28125 1431.726562 2054.109375 1432.6875 C 2052.9375 1433.648438 2051.746094 1434.578125 2050.527344 1435.480469 C 2049.308594 1436.386719 2048.070312 1437.257812 2046.8125 1438.097656 C 2045.550781 1438.941406 2044.273438 1439.75 2042.972656 1440.53125 C 2041.671875 1441.308594 2040.355469 1442.054688 2039.019531 1442.769531 C 2037.683594 1443.484375 2036.328125 1444.164062 2034.957031 1444.8125 C 2033.589844 1445.460938 2032.203125 1446.074219 2030.804688 1446.65625 C 2029.402344 1447.234375 2027.992188 1447.78125 2026.5625 1448.289062 C 2025.136719 1448.800781 2023.699219 1449.277344 2022.25 1449.714844 C 2020.796875 1450.15625 2019.339844 1450.558594 2017.867188 1450.929688 C 2016.398438 1451.296875 2014.921875 1451.628906 2013.433594 1451.925781 C 2011.949219 1452.21875 2010.457031 1452.480469 2008.957031 1452.703125 C 2007.457031 1452.921875 2005.953125 1453.109375 2004.445312 1453.257812 C 2002.9375 1453.40625 2001.425781 1453.519531 1999.914062 1453.59375 C 1998.398438 1453.667969 1996.886719 1453.703125 1995.371094 1453.703125 C 1993.855469 1453.703125 1992.339844 1453.667969 1990.828125 1453.59375 C 1989.3125 1453.519531 1987.800781 1453.40625 1986.292969 1453.257812 C 1984.785156 1453.109375 1983.28125 1452.921875 1981.785156 1452.703125 C 1980.285156 1452.480469 1978.792969 1452.21875 1977.304688 1451.925781 C 1975.820312 1451.628906 1974.339844 1451.296875 1972.871094 1450.929688 C 1971.402344 1450.558594 1969.941406 1450.15625 1968.492188 1449.714844 C 1967.042969 1449.277344 1965.601562 1448.800781 1964.175781 1448.289062 C 1962.75 1447.78125 1961.335938 1447.234375 1959.9375 1446.65625 C 1958.535156 1446.074219 1957.152344 1445.460938 1955.78125 1444.8125 C 1954.410156 1444.164062 1953.058594 1443.484375 1951.722656 1442.769531 C 1950.386719 1442.054688 1949.066406 1441.308594 1947.769531 1440.53125 C 1946.46875 1439.75 1945.1875 1438.941406 1943.929688 1438.097656 C 1942.667969 1437.257812 1941.429688 1436.386719 1940.210938 1435.480469 C 1938.996094 1434.578125 1937.800781 1433.648438 1936.628906 1432.6875 C 1935.457031 1431.726562 1934.3125 1430.734375 1933.1875 1429.71875 C 1932.066406 1428.699219 1930.96875 1427.65625 1929.898438 1426.582031 C 1928.824219 1425.511719 1927.78125 1424.414062 1926.761719 1423.292969 C 1925.746094 1422.167969 1924.757812 1421.023438 1923.796875 1419.851562 C 1922.832031 1418.679688 1921.902344 1417.484375 1921 1416.269531 C 1920.097656 1415.050781 1919.222656 1413.8125 1918.382812 1412.550781 C 1917.539062 1411.292969 1916.730469 1410.011719 1915.949219 1408.714844 C 1915.171875 1407.414062 1914.425781 1406.09375 1913.710938 1404.757812 C 1912.996094 1403.421875 1912.316406 1402.070312 1911.667969 1400.699219 C 1911.019531 1399.328125 1910.40625 1397.945312 1909.824219 1396.542969 C 1909.246094 1395.144531 1908.699219 1393.730469 1908.191406 1392.304688 C 1907.679688 1390.878906 1907.203125 1389.4375 1906.765625 1387.988281 C 1906.324219 1386.539062 1905.921875 1385.078125 1905.550781 1383.609375 C 1905.183594 1382.140625 1904.851562 1380.660156 1904.558594 1379.175781 C 1904.261719 1377.6875 1904.003906 1376.195312 1903.78125 1374.695312 C 1903.558594 1373.199219 1903.371094 1371.695312 1903.222656 1370.1875 C 1903.074219 1368.679688 1902.964844 1367.167969 1902.890625 1365.65625 C 1902.816406 1364.140625 1902.777344 1362.625 1902.777344 1361.109375 C 1902.777344 1359.597656 1902.816406 1358.082031 1902.890625 1356.566406 C 1902.964844 1355.054688 1903.074219 1353.542969 1903.222656 1352.035156 C 1903.371094 1350.527344 1903.558594 1349.023438 1903.78125 1347.523438 C 1904.003906 1346.027344 1904.261719 1344.535156 1904.558594 1343.046875 C 1904.851562 1341.5625 1905.183594 1340.082031 1905.550781 1338.613281 C 1905.921875 1337.144531 1906.324219 1335.683594 1906.765625 1334.234375 C 1907.203125 1332.78125 1907.679688 1331.34375 1908.191406 1329.917969 C 1908.699219 1328.492188 1909.246094 1327.078125 1909.824219 1325.675781 C 1910.40625 1324.277344 1911.019531 1322.890625 1911.667969 1321.523438 C 1912.316406 1320.152344 1912.996094 1318.800781 1913.710938 1317.464844 C 1914.425781 1316.125 1915.171875 1314.808594 1915.949219 1313.507812 C 1916.730469 1312.210938 1917.539062 1310.929688 1918.382812 1309.667969 C 1919.222656 1308.410156 1920.097656 1307.171875 1921 1305.953125 C 1921.902344 1304.738281 1922.832031 1303.542969 1923.796875 1302.371094 C 1924.757812 1301.199219 1925.746094 1300.050781 1926.761719 1298.929688 C 1927.78125 1297.808594 1928.824219 1296.710938 1929.898438 1295.636719 C 1930.96875 1294.566406 1932.066406 1293.523438 1933.1875 1292.503906 C 1934.3125 1291.488281 1935.457031 1290.496094 1936.628906 1289.535156 C 1937.800781 1288.574219 1938.996094 1287.644531 1940.210938 1286.738281 C 1941.429688 1285.835938 1942.667969 1284.964844 1943.929688 1284.121094 C 1945.1875 1283.28125 1946.46875 1282.472656 1947.769531 1281.691406 C 1949.066406 1280.914062 1950.386719 1280.164062 1951.722656 1279.453125 C 1953.058594 1278.738281 1954.410156 1278.054688 1955.78125 1277.410156 C 1957.152344 1276.761719 1958.535156 1276.144531 1959.9375 1275.566406 C 1961.335938 1274.988281 1962.75 1274.441406 1964.175781 1273.929688 C 1965.601562 1273.421875 1967.042969 1272.945312 1968.492188 1272.503906 C 1969.941406 1272.066406 1971.402344 1271.660156 1972.871094 1271.292969 C 1974.339844 1270.925781 1975.820312 1270.59375 1977.304688 1270.296875 C 1978.792969 1270.003906 1980.285156 1269.742188 1981.785156 1269.519531 C 1983.28125 1269.296875 1984.785156 1269.113281 1986.292969 1268.964844 C 1987.800781 1268.816406 1989.3125 1268.703125 1990.828125 1268.628906 C 1992.339844 1268.554688 1993.855469 1268.519531 1995.371094 1268.519531 C 1996.886719 1268.519531 1998.398438 1268.554688 1999.914062 1268.628906 C 2001.425781 1268.703125 2002.9375 1268.816406 2004.445312 1268.964844 C 2005.953125 1269.113281 2007.457031 1269.296875 2008.957031 1269.519531 C 2010.453125 1269.742188 2011.949219 1270.003906 2013.433594 1270.296875 C 2014.921875 1270.59375 2016.398438 1270.925781 2017.867188 1271.292969 C 2019.339844 1271.660156 2020.796875 1272.066406 2022.25 1272.503906 C 2023.699219 1272.945312 2025.136719 1273.421875 2026.5625 1273.929688 C 2027.992188 1274.441406 2029.402344 1274.988281 2030.804688 1275.566406 C 2032.203125 1276.148438 2033.589844 1276.761719 2034.957031 1277.410156 C 2036.328125 1278.054688 2037.683594 1278.738281 2039.019531 1279.453125 C 2040.355469 1280.167969 2041.671875 1280.914062 2042.972656 1281.691406 C 2044.273438 1282.472656 2045.550781 1283.28125 2046.8125 1284.121094 C 2048.070312 1284.964844 2049.308594 1285.835938 2050.527344 1286.738281 C 2051.746094 1287.640625 2052.9375 1288.574219 2054.109375 1289.535156 C 2055.28125 1290.496094 2056.429688 1291.488281 2057.550781 1292.503906 C 2058.675781 1293.523438 2059.773438 1294.566406 2060.84375 1295.636719 C 2061.914062 1296.710938 2062.957031 1297.808594 2063.976562 1298.929688 C 2064.996094 1300.050781 2065.984375 1301.199219 2066.945312 1302.371094 C 2067.90625 1303.542969 2068.839844 1304.738281 2069.742188 1305.953125 C 2070.644531 1307.171875 2071.515625 1308.410156 2072.359375 1309.667969 C 2073.199219 1310.929688 2074.011719 1312.210938 2074.789062 1313.507812 C 2075.570312 1314.808594 2076.316406 1316.125 2077.03125 1317.464844 C 2077.742188 1318.800781 2078.425781 1320.152344 2079.074219 1321.523438 C 2079.71875 1322.890625 2080.335938 1324.277344 2080.914062 1325.675781 C 2081.496094 1327.078125 2082.039062 1328.492188 2082.550781 1329.917969 C 2083.0625 1331.34375 2083.535156 1332.78125 2083.976562 1334.234375 C 2084.414062 1335.683594 2084.820312 1337.144531 2085.1875 1338.613281 C 2085.554688 1340.082031 2085.886719 1341.5625 2086.183594 1343.046875 C 2086.480469 1344.535156 2086.738281 1346.027344 2086.960938 1347.523438 C 2087.183594 1349.023438 2087.367188 1350.527344 2087.515625 1352.035156 C 2087.664062 1353.542969 2087.777344 1355.054688 2087.851562 1356.566406 C 2087.925781 1358.082031 2087.960938 1359.597656 2087.960938 1361.109375 Z M 2087.960938 1361.109375 " fill-opacity="1" fill-rule="nonzero"/><path fill="#b9b9b9" d="M 1699.074219 592.59375 C 1699.074219 611.109375 1680.554688 629.628906 1662.039062 629.628906 L 689.816406 629.628906 C 671.296875 629.628906 652.777344 611.109375 652.777344 592.59375 C 652.777344 574.074219 671.296875 555.554688 689.816406 555.554688 L 1652.777344 555.554688 C 1680.554688 555.554688 1699.074219 574.074219 1699.074219 592.59375 Z M 1699.074219 592.59375 " fill-opacity="1" fill-rule="nonzero"/><path fill="#b9b9b9" d="M 1921.296875 842.59375 C 1921.296875 861.109375 1902.777344 879.628906 1884.257812 879.628906 L 689.816406 879.628906 C 671.296875 879.628906 652.777344 861.109375 652.777344 842.59375 C 652.777344 824.074219 671.296875 805.554688 689.816406 805.554688 L 1884.257812 805.554688 C 1902.777344 805.554688 1921.296875 824.074219 1921.296875 842.59375 Z M 1921.296875 842.59375 " fill-opacity="1" fill-rule="nonzero"/><path fill="#36454d" d="M 2384.257812 231.480469 L 1893.519531 231.480469 L 1828.703125 296.296875 L 1828.703125 398.148438 L 2504.628906 1074.074219 L 2504.628906 333.332031 C 2495.371094 277.777344 2449.074219 231.480469 2384.257812 231.480469 Z M 2384.257812 231.480469 " fill-opacity="0.1" fill-rule="nonzero"/><path fill="#e84725" d="M 2254.628906 138.890625 C 2236.109375 111.109375 2199.074219 101.851562 2171.296875 120.371094 L 1921.296875 296.296875 C 1912.035156 305.554688 1912.035156 314.816406 1921.296875 324.074219 C 1930.554688 333.332031 1939.816406 333.332031 1949.074219 324.074219 L 2189.816406 157.40625 C 2199.074219 148.148438 2217.59375 148.148438 2226.851562 157.40625 C 2236.109375 166.667969 2236.109375 185.183594 2217.59375 194.445312 L 1939.816406 388.890625 C 1912.035156 407.40625 1865.742188 398.148438 1847.222656 370.371094 C 1828.703125 342.59375 1837.960938 296.296875 1865.742188 277.777344 L 2162.035156 64.816406 C 2208.332031 27.777344 2273.148438 46.296875 2310.183594 92.59375 C 2337.964844 129.628906 2328.703125 185.183594 2300.925781 222.222656 L 2347.222656 222.222656 C 2375 175.925781 2375 120.371094 2347.222656 74.074219 C 2300.925781 9.257812 2217.59375 0 2152.777344 37.039062 L 1856.480469 250 C 1810.183594 277.777344 1800.925781 342.59375 1828.703125 388.890625 C 1856.480469 435.183594 1921.296875 444.445312 1967.59375 416.667969 L 2245.371094 222.222656 C 2263.890625 203.703125 2273.148438 166.667969 2254.628906 138.890625 Z M 2254.628906 138.890625 " fill-opacity="1" fill-rule="nonzero"/><path fill="#ffffff" d="M 2208.332031 2250 C 2208.332031 2287.035156 2180.554688 2314.816406 2143.519531 2314.816406 L 1976.851562 2314.816406 C 1939.816406 2314.816406 1912.035156 2287.039062 1912.035156 2250 C 1912.035156 2212.964844 1939.816406 2185.183594 1976.851562 2185.183594 L 2143.519531 2185.183594 C 2180.554688 2185.183594 2208.332031 2212.964844 2208.332031 2250 Z M 2208.332031 2250 " fill-opacity="0.1" fill-rule="nonzero"/><path fill="#ffffff" d="M 1865.742188 2250 C 1865.742188 2287.035156 1837.964844 2314.816406 1800.925781 2314.816406 L 1791.667969 2314.816406 C 1754.628906 2314.816406 1726.851562 2287.039062 1726.851562 2250 C 1726.851562 2212.964844 1754.628906 2185.183594 1791.667969 2185.183594 L 1800.925781 2185.183594 C 1837.964844 2185.183594 1865.742188 2212.964844 1865.742188 2250 Z M 1865.742188 2250 " fill-opacity="0.1" fill-rule="nonzero"/></svg>