<svg xmlns="http://www.w3.org/2000/svg" xmlns:xlink="http://www.w3.org/1999/xlink" width="4000" zoomAndPan="magnify" viewBox="0 0 3000 2999.999989" height="4000" preserveAspectRatio="xMidYMid meet" version="1.0"><path fill="#84ca9b" d="M 2702.839844 976.929688 L 1946.429688 2731.527344 C 1922.289062 2779.820312 1874.007812 2803.964844 1825.726562 2779.820312 L 353.144531 2143.980469 C 304.859375 2119.835938 280.71875 2071.542969 304.859375 2023.25 L 1061.269531 268.652344 C 1085.410156 220.363281 1133.691406 196.214844 1181.976562 220.363281 L 2646.511719 856.203125 C 2702.839844 872.300781 2718.933594 928.640625 2702.839844 976.929688 Z M 2702.839844 976.929688 " fill-opacity="1" fill-rule="nonzero"/><path fill="#b9b9b9" d="M 2702.839844 976.929688 L 2405.105469 1669.113281 L 2026.902344 2530.3125 L 1946.429688 2731.527344 C 1922.289062 2779.820312 1874.007812 2803.964844 1825.726562 2779.820312 L 1246.351562 2530.3125 L 546.269531 2224.464844 L 361.191406 2143.980469 C 312.90625 2119.835938 288.765625 2071.542969 312.90625 2023.25 L 546.269531 1475.945312 L 1029.082031 357.1875 L 1061.269531 268.652344 C 1085.410156 220.363281 1133.691406 196.214844 1181.976562 220.363281 L 1503.851562 357.1875 L 2397.058594 743.523438 L 2646.511719 856.203125 C 2702.839844 872.300781 2718.933594 928.640625 2702.839844 976.929688 Z M 2702.839844 976.929688 " fill-opacity="1" fill-rule="nonzero"/><path fill="#e6e6e5" d="M 2364.871094 485.964844 L 2364.871094 2393.488281 C 2364.871094 2441.777344 2324.636719 2490.070312 2268.308594 2490.070312 L 675.019531 2490.070312 C 626.738281 2490.070312 578.457031 2449.828125 578.457031 2393.488281 L 578.457031 485.964844 C 578.457031 437.675781 618.691406 389.382812 675.019531 389.382812 L 2268.308594 389.382812 C 2324.636719 397.429688 2364.871094 437.675781 2364.871094 485.964844 Z M 2364.871094 485.964844 " fill-opacity="1" fill-rule="nonzero"/><path fill="#3789c9" d="M 2187.839844 1218.390625 L 2187.839844 2216.417969 C 2187.839844 2256.660156 2155.652344 2288.855469 2115.417969 2288.855469 L 835.957031 2288.855469 C 795.722656 2288.855469 763.535156 2256.660156 763.535156 2216.417969 L 763.535156 1218.390625 C 763.535156 1178.148438 795.722656 1145.953125 835.957031 1145.953125 L 2107.371094 1145.953125 C 2147.605469 1145.953125 2187.839844 1178.148438 2187.839844 1218.390625 Z M 2187.839844 1218.390625 " fill-opacity="1" fill-rule="nonzero"/><path fill="#4c9fd8" d="M 835.957031 1218.390625 L 2115.417969 1218.390625 L 2115.417969 1974.960938 L 835.957031 1974.960938 Z M 835.957031 1218.390625 " fill-opacity="1" fill-rule="nonzero"/><path fill="#36454d" d="M 2026.902344 1974.960938 L 1214.164062 1974.960938 L 1431.429688 1612.773438 L 1536.039062 1427.652344 L 1624.554688 1395.460938 L 1705.023438 1427.652344 Z M 2026.902344 1974.960938 " fill-opacity="1" fill-rule="nonzero"/><path fill="#ffffff" d="M 1705.023438 1427.652344 L 1624.554688 1395.460938 L 1536.039062 1435.703125 L 1608.460938 1306.925781 C 1616.507812 1298.875 1632.601562 1298.875 1632.601562 1306.925781 Z M 1705.023438 1427.652344 " fill-opacity="1" fill-rule="nonzero"/><path fill="#4f616d" d="M 1640.648438 1974.960938 L 916.425781 1974.960938 L 1214.164062 1475.945312 L 1278.539062 1459.847656 L 1350.960938 1475.945312 L 1431.429688 1612.773438 Z M 1640.648438 1974.960938 " fill-opacity="1" fill-rule="nonzero"/><path fill="#ffffff" d="M 1350.960938 1475.945312 L 1278.539062 1459.847656 L 1206.117188 1475.945312 L 1262.445312 1379.363281 C 1270.492188 1371.3125 1286.585938 1371.3125 1286.585938 1379.363281 Z M 1350.960938 1475.945312 " fill-opacity="1" fill-rule="nonzero"/><path fill="#ffffff" d="M 2010.804688 1379.363281 C 2010.804688 1380.679688 2010.773438 1381.996094 2010.710938 1383.3125 C 2010.644531 1384.625 2010.546875 1385.941406 2010.417969 1387.25 C 2010.289062 1388.5625 2010.128906 1389.867188 2009.9375 1391.171875 C 2009.742188 1392.472656 2009.515625 1393.773438 2009.261719 1395.0625 C 2009.003906 1396.355469 2008.714844 1397.640625 2008.394531 1398.917969 C 2008.074219 1400.195312 2007.722656 1401.464844 2007.339844 1402.726562 C 2006.960938 1403.984375 2006.546875 1405.238281 2006.101562 1406.476562 C 2005.660156 1407.71875 2005.183594 1408.945312 2004.679688 1410.164062 C 2004.175781 1411.378906 2003.644531 1412.582031 2003.082031 1413.773438 C 2002.515625 1414.964844 2001.925781 1416.140625 2001.304688 1417.304688 C 2000.683594 1418.464844 2000.035156 1419.609375 1999.359375 1420.738281 C 1998.679688 1421.871094 1997.976562 1422.980469 1997.246094 1424.078125 C 1996.511719 1425.171875 1995.753906 1426.25 1994.972656 1427.308594 C 1994.1875 1428.367188 1993.375 1429.402344 1992.539062 1430.421875 C 1991.707031 1431.441406 1990.84375 1432.4375 1989.960938 1433.414062 C 1989.078125 1434.390625 1988.167969 1435.34375 1987.238281 1436.273438 C 1986.304688 1437.207031 1985.351562 1438.113281 1984.378906 1439 C 1983.402344 1439.882812 1982.40625 1440.742188 1981.386719 1441.578125 C 1980.367188 1442.414062 1979.332031 1443.222656 1978.273438 1444.007812 C 1977.214844 1444.792969 1976.136719 1445.550781 1975.042969 1446.285156 C 1973.949219 1447.015625 1972.835938 1447.71875 1971.707031 1448.398438 C 1970.578125 1449.074219 1969.433594 1449.722656 1968.269531 1450.34375 C 1967.109375 1450.964844 1965.933594 1451.558594 1964.742188 1452.121094 C 1963.550781 1452.683594 1962.347656 1453.21875 1961.132812 1453.722656 C 1959.914062 1454.226562 1958.6875 1454.699219 1957.445312 1455.144531 C 1956.207031 1455.585938 1954.957031 1456 1953.695312 1456.382812 C 1952.4375 1456.765625 1951.167969 1457.117188 1949.890625 1457.4375 C 1948.613281 1457.757812 1947.328125 1458.042969 1946.035156 1458.300781 C 1944.746094 1458.558594 1943.449219 1458.785156 1942.144531 1458.976562 C 1940.84375 1459.171875 1939.535156 1459.332031 1938.226562 1459.460938 C 1936.914062 1459.589844 1935.601562 1459.6875 1934.285156 1459.75 C 1932.96875 1459.816406 1931.65625 1459.847656 1930.335938 1459.847656 C 1929.019531 1459.847656 1927.703125 1459.816406 1926.390625 1459.75 C 1925.074219 1459.6875 1923.761719 1459.589844 1922.449219 1459.460938 C 1921.140625 1459.332031 1919.832031 1459.171875 1918.53125 1458.976562 C 1917.226562 1458.785156 1915.929688 1458.558594 1914.636719 1458.300781 C 1913.347656 1458.042969 1912.0625 1457.757812 1910.785156 1457.4375 C 1909.507812 1457.117188 1908.238281 1456.765625 1906.976562 1456.382812 C 1905.71875 1456 1904.46875 1455.585938 1903.226562 1455.144531 C 1901.988281 1454.699219 1900.761719 1454.226562 1899.542969 1453.722656 C 1898.328125 1453.21875 1897.121094 1452.683594 1895.933594 1452.121094 C 1894.742188 1451.558594 1893.566406 1450.964844 1892.40625 1450.34375 C 1891.242188 1449.722656 1890.097656 1449.074219 1888.96875 1448.398438 C 1887.839844 1447.71875 1886.726562 1447.015625 1885.632812 1446.285156 C 1884.535156 1445.550781 1883.460938 1444.792969 1882.402344 1444.007812 C 1881.34375 1443.222656 1880.304688 1442.414062 1879.289062 1441.578125 C 1878.269531 1440.742188 1877.273438 1439.882812 1876.296875 1439 C 1875.320312 1438.113281 1874.367188 1437.207031 1873.4375 1436.273438 C 1872.507812 1435.34375 1871.597656 1434.390625 1870.714844 1433.414062 C 1869.828125 1432.4375 1868.96875 1431.441406 1868.132812 1430.421875 C 1867.296875 1429.402344 1866.488281 1428.367188 1865.703125 1427.308594 C 1864.917969 1426.25 1864.160156 1425.171875 1863.429688 1424.078125 C 1862.699219 1422.980469 1861.992188 1421.871094 1861.316406 1420.738281 C 1860.640625 1419.609375 1859.992188 1418.464844 1859.371094 1417.304688 C 1858.75 1416.140625 1858.15625 1414.964844 1857.59375 1413.773438 C 1857.03125 1412.582031 1856.496094 1411.378906 1855.992188 1410.164062 C 1855.488281 1408.945312 1855.015625 1407.71875 1854.570312 1406.476562 C 1854.128906 1405.238281 1853.714844 1403.984375 1853.332031 1402.726562 C 1852.949219 1401.464844 1852.601562 1400.195312 1852.28125 1398.917969 C 1851.960938 1397.640625 1851.671875 1396.355469 1851.414062 1395.0625 C 1851.15625 1393.773438 1850.933594 1392.476562 1850.738281 1391.171875 C 1850.546875 1389.867188 1850.386719 1388.5625 1850.257812 1387.25 C 1850.125 1385.941406 1850.03125 1384.625 1849.964844 1383.3125 C 1849.902344 1381.996094 1849.867188 1380.679688 1849.867188 1379.363281 C 1849.867188 1378.042969 1849.902344 1376.726562 1849.964844 1375.414062 C 1850.03125 1374.097656 1850.125 1372.785156 1850.257812 1371.472656 C 1850.386719 1370.164062 1850.546875 1368.855469 1850.738281 1367.550781 C 1850.933594 1366.25 1851.15625 1364.953125 1851.414062 1363.660156 C 1851.671875 1362.367188 1851.960938 1361.082031 1852.28125 1359.804688 C 1852.601562 1358.527344 1852.949219 1357.257812 1853.332031 1356 C 1853.714844 1354.738281 1854.128906 1353.488281 1854.570312 1352.246094 C 1855.015625 1351.007812 1855.488281 1349.777344 1855.992188 1348.5625 C 1856.496094 1347.34375 1857.03125 1346.140625 1857.59375 1344.949219 C 1858.15625 1343.757812 1858.75 1342.582031 1859.371094 1341.421875 C 1859.992188 1340.257812 1860.640625 1339.113281 1861.316406 1337.984375 C 1861.992188 1336.855469 1862.699219 1335.742188 1863.429688 1334.644531 C 1864.160156 1333.550781 1864.917969 1332.472656 1865.703125 1331.417969 C 1866.488281 1330.359375 1867.296875 1329.320312 1868.132812 1328.300781 C 1868.96875 1327.285156 1869.828125 1326.285156 1870.714844 1325.3125 C 1871.597656 1324.335938 1872.507812 1323.382812 1873.4375 1322.449219 C 1874.367188 1321.519531 1875.320312 1320.609375 1876.296875 1319.726562 C 1877.273438 1318.839844 1878.269531 1317.980469 1879.289062 1317.144531 C 1880.304688 1316.308594 1881.34375 1315.5 1882.402344 1314.714844 C 1883.460938 1313.929688 1884.535156 1313.171875 1885.632812 1312.441406 C 1886.726562 1311.707031 1887.839844 1311.003906 1888.96875 1310.328125 C 1890.097656 1309.648438 1891.242188 1309 1892.40625 1308.378906 C 1893.566406 1307.757812 1894.742188 1307.167969 1895.933594 1306.601562 C 1897.121094 1306.039062 1898.328125 1305.507812 1899.542969 1305.003906 C 1900.761719 1304.5 1901.988281 1304.023438 1903.226562 1303.582031 C 1904.46875 1303.136719 1905.71875 1302.722656 1906.976562 1302.339844 C 1908.238281 1301.960938 1909.507812 1301.609375 1910.785156 1301.289062 C 1912.0625 1300.96875 1913.347656 1300.679688 1914.636719 1300.421875 C 1915.929688 1300.164062 1917.226562 1299.941406 1918.53125 1299.746094 C 1919.832031 1299.554688 1921.140625 1299.390625 1922.449219 1299.261719 C 1923.761719 1299.132812 1925.074219 1299.039062 1926.390625 1298.972656 C 1927.703125 1298.90625 1929.019531 1298.875 1930.335938 1298.875 C 1931.65625 1298.875 1932.96875 1298.90625 1934.285156 1298.972656 C 1935.601562 1299.039062 1936.914062 1299.132812 1938.226562 1299.261719 C 1939.535156 1299.394531 1940.84375 1299.554688 1942.144531 1299.746094 C 1943.445312 1299.941406 1944.746094 1300.164062 1946.035156 1300.421875 C 1947.328125 1300.679688 1948.613281 1300.96875 1949.890625 1301.289062 C 1951.167969 1301.609375 1952.4375 1301.960938 1953.695312 1302.339844 C 1954.957031 1302.722656 1956.207031 1303.136719 1957.445312 1303.582031 C 1958.6875 1304.023438 1959.914062 1304.5 1961.132812 1305.003906 C 1962.347656 1305.507812 1963.550781 1306.039062 1964.742188 1306.601562 C 1965.933594 1307.167969 1967.109375 1307.757812 1968.269531 1308.378906 C 1969.433594 1309 1970.578125 1309.648438 1971.707031 1310.328125 C 1972.835938 1311.003906 1973.949219 1311.707031 1975.042969 1312.441406 C 1976.136719 1313.171875 1977.214844 1313.929688 1978.273438 1314.714844 C 1979.332031 1315.5 1980.367188 1316.308594 1981.386719 1317.144531 C 1982.40625 1317.980469 1983.402344 1318.839844 1984.378906 1319.726562 C 1985.351562 1320.609375 1986.304688 1321.519531 1987.238281 1322.449219 C 1988.167969 1323.382812 1989.078125 1324.335938 1989.960938 1325.3125 C 1990.84375 1326.285156 1991.707031 1327.285156 1992.539062 1328.300781 C 1993.375 1329.320312 1994.1875 1330.359375 1994.972656 1331.417969 C 1995.753906 1332.472656 1996.511719 1333.550781 1997.246094 1334.644531 C 1997.976562 1335.742188 1998.679688 1336.855469 1999.359375 1337.984375 C 2000.035156 1339.113281 2000.683594 1340.257812 2001.304688 1341.421875 C 2001.925781 1342.582031 2002.515625 1343.757812 2003.082031 1344.949219 C 2003.644531 1346.140625 2004.175781 1347.34375 2004.679688 1348.5625 C 2005.183594 1349.777344 2005.660156 1351.007812 2006.101562 1352.246094 C 2006.546875 1353.488281 2006.960938 1354.738281 2007.339844 1356 C 2007.722656 1357.257812 2008.074219 1358.527344 2008.394531 1359.804688 C 2008.714844 1361.082031 2009.003906 1362.367188 2009.261719 1363.660156 C 2009.515625 1364.953125 2009.742188 1366.25 2009.9375 1367.550781 C 2010.128906 1368.855469 2010.289062 1370.164062 2010.417969 1371.472656 C 2010.546875 1372.785156 2010.644531 1374.097656 2010.710938 1375.414062 C 2010.773438 1376.726562 2010.804688 1378.042969 2010.804688 1379.363281 Z M 2010.804688 1379.363281 " fill-opacity="1" fill-rule="nonzero"/><path fill="#b9b9b9" d="M 1672.835938 711.328125 C 1672.835938 727.425781 1656.742188 743.523438 1640.648438 743.523438 L 795.722656 743.523438 C 779.628906 743.523438 763.535156 727.425781 763.535156 711.328125 C 763.535156 695.230469 779.628906 679.132812 795.722656 679.132812 L 1632.601562 679.132812 C 1656.742188 679.132812 1672.835938 695.230469 1672.835938 711.328125 Z M 1672.835938 711.328125 " fill-opacity="1" fill-rule="nonzero"/><path fill="#b9b9b9" d="M 1865.960938 928.640625 C 1865.960938 944.738281 1849.867188 960.835938 1833.773438 960.835938 L 795.722656 960.835938 C 779.628906 960.835938 763.535156 944.738281 763.535156 928.640625 C 763.535156 912.542969 779.628906 896.445312 795.722656 896.445312 L 1833.773438 896.445312 C 1849.867188 896.445312 1865.960938 912.542969 1865.960938 928.640625 Z M 1865.960938 928.640625 " fill-opacity="1" fill-rule="nonzero"/><path fill="#36454d" d="M 2268.308594 397.429688 L 1841.820312 397.429688 L 1785.492188 453.773438 L 1785.492188 542.304688 L 2372.917969 1129.855469 L 2372.917969 485.964844 C 2364.871094 437.675781 2324.636719 397.429688 2268.308594 397.429688 Z M 2268.308594 397.429688 " fill-opacity="0.1" fill-rule="nonzero"/><path fill="#e84725" d="M 2155.652344 316.945312 C 2139.558594 292.800781 2107.371094 284.75 2083.230469 300.847656 L 1865.960938 453.773438 C 1857.914062 461.820312 1857.914062 469.867188 1865.960938 477.917969 C 1874.007812 485.964844 1882.054688 485.964844 1890.101562 477.917969 L 2099.324219 333.042969 C 2107.371094 324.992188 2123.464844 324.992188 2131.511719 333.042969 C 2139.558594 341.089844 2139.558594 357.1875 2123.464844 365.238281 L 1882.054688 534.257812 C 1857.914062 550.355469 1817.679688 542.304688 1801.585938 518.160156 C 1785.492188 494.015625 1793.539062 453.773438 1817.679688 437.675781 L 2075.183594 252.554688 C 2115.417969 220.363281 2171.746094 236.460938 2203.933594 276.703125 C 2228.074219 308.898438 2220.027344 357.1875 2195.886719 389.382812 L 2236.121094 389.382812 C 2260.261719 349.140625 2260.261719 300.847656 2236.121094 260.605469 C 2195.886719 204.265625 2123.464844 196.214844 2067.136719 228.410156 L 1809.632812 413.527344 C 1769.398438 437.675781 1761.351562 494.015625 1785.492188 534.257812 C 1809.632812 574.5 1865.960938 582.550781 1906.195312 558.402344 L 2147.605469 389.382812 C 2163.699219 373.285156 2171.746094 341.089844 2155.652344 316.945312 Z M 2155.652344 316.945312 " fill-opacity="1" fill-rule="nonzero"/><path fill="#ffffff" d="M 2115.417969 2152.027344 C 2115.417969 2184.222656 2091.277344 2208.367188 2059.089844 2208.367188 L 1914.242188 2208.367188 C 1882.054688 2208.367188 1857.914062 2184.222656 1857.914062 2152.027344 C 1857.914062 2119.835938 1882.054688 2095.6875 1914.242188 2095.6875 L 2059.089844 2095.6875 C 2091.277344 2095.6875 2115.417969 2119.835938 2115.417969 2152.027344 Z M 2115.417969 2152.027344 " fill-opacity="0.1" fill-rule="nonzero"/><path fill="#ffffff" d="M 1817.679688 2152.027344 C 1817.679688 2184.222656 1793.539062 2208.367188 1761.351562 2208.367188 L 1753.304688 2208.367188 C 1721.117188 2208.367188 1696.976562 2184.222656 1696.976562 2152.027344 C 1696.976562 2119.835938 1721.117188 2095.6875 1753.304688 2095.6875 L 1761.351562 2095.6875 C 1793.539062 2095.6875 1817.679688 2119.835938 1817.679688 2152.027344 Z M 1817.679688 2152.027344 " fill-opacity="0.1" fill-rule="nonzero"/></svg>