<svg xmlns="http://www.w3.org/2000/svg" xmlns:xlink="http://www.w3.org/1999/xlink" width="4000" zoomAndPan="magnify" viewBox="0 0 3000 2999.999989" height="4000" preserveAspectRatio="xMidYMid meet" version="1.0"><defs><clipPath id="3829533cac"><path d="M 77 245.152344 L 2756 245.152344 L 2756 2754.652344 L 77 2754.652344 Z M 77 245.152344 " clip-rule="nonzero"/></clipPath><clipPath id="94f68a1101"><path d="M 77 830 L 2923 830 L 2923 2754.652344 L 77 2754.652344 Z M 77 830 " clip-rule="nonzero"/></clipPath></defs><g clip-path="url(#3829533cac)"><path fill="#226699" d="M 77.839844 2420.050781 C 77.839844 2604.832031 227.679688 2754.652344 412.488281 2754.652344 L 2420.386719 2754.652344 C 2605.199219 2754.652344 2755.035156 2604.832031 2755.035156 2420.050781 L 2755.035156 998 C 2755.035156 813.21875 2605.199219 663.402344 2420.386719 663.402344 L 1667.425781 663.402344 C 1369.417969 663.402344 1416.4375 245.152344 961.480469 245.152344 L 412.488281 245.152344 C 227.679688 245.152344 77.839844 394.96875 77.839844 579.75 Z M 77.839844 2420.050781 " fill-opacity="1" fill-rule="nonzero"/></g><g clip-path="url(#94f68a1101)"><path fill="#55acee" d="M 2587.710938 830.699219 L 2038.71875 830.699219 C 1583.761719 830.699219 1630.78125 1248.949219 1332.773438 1248.949219 L 579.8125 1248.949219 C 395.003906 1248.949219 245.164062 1398.769531 245.164062 1583.550781 L 245.164062 2420.050781 C 245.164062 2466.308594 207.683594 2503.699219 161.5 2503.699219 C 115.320312 2503.699219 77.839844 2466.308594 77.839844 2420.050781 C 77.839844 2604.832031 227.679688 2754.652344 412.488281 2754.652344 L 2587.710938 2754.652344 C 2772.523438 2754.652344 2922.363281 2604.832031 2922.363281 2420.050781 L 2922.363281 1165.300781 C 2922.363281 980.519531 2772.523438 830.699219 2587.710938 830.699219 Z M 2587.710938 830.699219 " fill-opacity="1" fill-rule="nonzero"/></g></svg>