<svg xmlns="http://www.w3.org/2000/svg" xmlns:xlink="http://www.w3.org/1999/xlink" width="4000" zoomAndPan="magnify" viewBox="0 0 3000 2999.999989" height="4000" preserveAspectRatio="xMidYMid meet" version="1.0"><defs><clipPath id="27b8b3ab80"><path d="M 77 245.152344 L 2755 245.152344 L 2755 2754.652344 L 77 2754.652344 Z M 77 245.152344 " clip-rule="nonzero"/></clipPath><clipPath id="257bbd2382"><path d="M 77 830 L 2923 830 L 2923 2754.652344 L 77 2754.652344 Z M 77 830 " clip-rule="nonzero"/></clipPath></defs><g clip-path="url(#27b8b3ab80)"><path fill="#2b2b2b" d="M 77.839844 2420.214844 C 77.839844 2605.011719 227.667969 2754.839844 412.464844 2754.839844 L 2420.214844 2754.839844 C 2605.011719 2754.839844 2754.839844 2605.011719 2754.839844 2420.214844 L 2754.839844 998.058594 C 2754.839844 813.261719 2605.011719 663.433594 2420.214844 663.433594 L 1667.308594 663.433594 C 1369.324219 663.433594 1416.339844 245.152344 961.414062 245.152344 L 412.464844 245.152344 C 227.667969 245.152344 77.839844 394.980469 77.839844 579.777344 Z M 77.839844 2420.214844 " fill-opacity="1" fill-rule="nonzero"/></g><g clip-path="url(#257bbd2382)"><path fill="#525252" d="M 2587.527344 830.746094 L 2038.574219 830.746094 C 1583.652344 830.746094 1630.664062 1249.027344 1332.683594 1249.027344 L 579.777344 1249.027344 C 394.980469 1249.027344 245.152344 1398.855469 245.152344 1583.652344 L 245.152344 2420.214844 C 245.152344 2466.476562 207.671875 2503.871094 161.496094 2503.871094 C 115.316406 2503.871094 77.839844 2466.476562 77.839844 2420.214844 C 77.839844 2605.011719 227.667969 2754.839844 412.464844 2754.839844 L 2587.527344 2754.839844 C 2772.324219 2754.839844 2922.152344 2605.011719 2922.152344 2420.214844 L 2922.152344 1165.371094 C 2922.152344 980.574219 2772.324219 830.746094 2587.527344 830.746094 Z M 2587.527344 830.746094 " fill-opacity="1" fill-rule="nonzero"/></g></svg>