<svg xmlns="http://www.w3.org/2000/svg" xmlns:xlink="http://www.w3.org/1999/xlink" width="4000" zoomAndPan="magnify" viewBox="0 0 3000 2999.999989" height="4000" preserveAspectRatio="xMidYMid meet" version="1.0"><defs><clipPath id="64afdd635f"><path d="M 116.25 86.25 L 2913.75 86.25 L 2913.75 2883.75 L 116.25 2883.75 Z M 116.25 86.25 " clip-rule="nonzero"/></clipPath><clipPath id="d95202209e"><path d="M 1515 86.25 C 742.492188 86.25 116.25 712.492188 116.25 1485 C 116.25 2257.507812 742.492188 2883.75 1515 2883.75 C 2287.507812 2883.75 2913.75 2257.507812 2913.75 1485 C 2913.75 712.492188 2287.507812 86.25 1515 86.25 Z M 1515 86.25 " clip-rule="nonzero"/></clipPath></defs><g clip-path="url(#64afdd635f)"><g clip-path="url(#d95202209e)"><path fill="#2b2b2b" d="M 116.25 86.25 L 2913.75 86.25 L 2913.75 2883.75 L 116.25 2883.75 Z M 116.25 86.25 " fill-opacity="1" fill-rule="nonzero"/></g></g><path fill="#4293cf" d="M 2849.984375 1485.015625 C 2849.984375 2222.296875 2252.304688 2819.988281 1515.015625 2819.988281 C 777.734375 2819.988281 180.050781 2222.296875 180.050781 1485.015625 C 180.050781 747.730469 777.734375 150.046875 1515.015625 150.046875 C 2252.304688 150.046875 2849.984375 747.730469 2849.984375 1485.015625 " fill-opacity="1" fill-rule="nonzero"/><path fill="#e4e4e3" d="M 1989.234375 1063.003906 C 1989.234375 1325.839844 1776.140625 1538.914062 1513.308594 1538.914062 C 1250.464844 1538.914062 1037.386719 1325.839844 1037.386719 1063.003906 C 1037.386719 800.152344 1250.464844 587.078125 1513.308594 587.078125 C 1776.140625 587.078125 1989.234375 800.152344 1989.234375 1063.003906 " fill-opacity="1" fill-rule="nonzero"/><path fill="#e4e4e3" d="M 1513.300781 2756.613281 C 1850.074219 2756.613281 2157.679688 2631.851562 2392.539062 2426.097656 C 2319.632812 1950.039062 2104.960938 1619.671875 1513.300781 1619.671875 C 938.265625 1619.671875 715.683594 1951.441406 637.488281 2429.140625 C 871.910156 2633.09375 1178.175781 2756.613281 1513.300781 2756.613281 " fill-opacity="1" fill-rule="nonzero"/></svg>