<svg xmlns="http://www.w3.org/2000/svg" xmlns:xlink="http://www.w3.org/1999/xlink" width="4000" zoomAndPan="magnify" viewBox="0 0 3000 2999.999989" height="4000" preserveAspectRatio="xMidYMid meet" version="1.0"><defs><clipPath id="aa5796a724"><path d="M 779.023438 855 L 2245 855 L 2245 2427.75 L 779.023438 2427.75 Z M 779.023438 855 " clip-rule="nonzero"/></clipPath><clipPath id="c4a1c2478e"><path d="M 779.023438 1344.898438 C 779.023438 1344.824219 779.625 1342.199219 779.925781 1340.851562 C 780.300781 1339.5 780.898438 1336.875 780.898438 1336.800781 C 780.898438 1336.726562 782.175781 1334.324219 782.773438 1333.125 C 783.449219 1331.925781 784.648438 1329.449219 784.648438 1329.449219 C 784.726562 1329.226562 778.800781 1301.773438 781.351562 1288.5 C 784.050781 1274.625 797.476562 1262.398438 801.601562 1248.148438 C 805.800781 1233.75 804 1218.898438 806.175781 1202.550781 C 808.726562 1183.425781 813.300781 1162.199219 816.375 1140.523438 C 819.675781 1116.898438 822.75 1089.300781 825.074219 1066.125 C 827.101562 1046.023438 828.675781 1027.5 829.875 1009.425781 C 831.074219 992.925781 832.050781 978.375 832.5 961.949219 C 832.949219 944.25 832.5 907.050781 832.5 906.898438 C 832.5 906.824219 832.875 903.601562 833.101562 902.023438 C 833.25 900.375 833.625 897.148438 833.699219 897.074219 C 833.699219 897 834.824219 893.925781 835.425781 892.425781 C 836.023438 890.851562 837.148438 887.773438 837.226562 887.773438 C 837.226562 887.699219 839.101562 885 840 883.648438 C 840.976562 882.300781 842.773438 879.601562 842.851562 879.523438 C 842.925781 879.523438 845.324219 877.351562 846.601562 876.226562 C 847.800781 875.175781 850.273438 873 850.273438 872.925781 C 850.351562 872.925781 853.199219 871.425781 854.699219 870.675781 C 856.199219 869.851562 859.050781 868.351562 859.125 868.351562 C 859.199219 868.273438 862.351562 867.523438 863.925781 867.148438 C 865.574219 866.773438 868.726562 865.949219 868.800781 865.949219 C 868.875 865.949219 872.101562 865.949219 873.75 865.949219 C 875.398438 865.949219 878.625 865.949219 878.699219 865.949219 C 878.773438 865.949219 881.925781 866.773438 883.574219 867.148438 C 885.148438 867.523438 886.800781 868.800781 888.300781 868.273438 C 890.398438 867.601562 890.773438 862.949219 894.300781 861 C 901.800781 856.875 917.925781 855 937.5 855.601562 C 979.726562 857.023438 1076.925781 883.800781 1136.625 894.074219 C 1184.925781 902.398438 1234.5 909.074219 1268.398438 914.175781 C 1289.625 917.324219 1312.800781 920.398438 1320.300781 921.898438 C 1322.398438 922.351562 1323 922.574219 1324.351562 922.949219 C 1325.699219 923.324219 1328.25 924 1328.324219 924 C 1328.398438 924 1330.726562 925.273438 1332 925.949219 C 1333.199219 926.625 1335.523438 927.898438 1335.601562 927.898438 C 1335.675781 927.976562 1337.625 929.773438 1338.675781 930.675781 C 1339.648438 931.648438 1341.675781 933.449219 1341.75 933.449219 C 1341.75 933.523438 1341.75 933.523438 1341.75 933.523438 C 1341.75 933.523438 1342.125 935.023438 1342.949219 935.25 C 1345.273438 935.925781 1352.851562 929.175781 1360.648438 927.375 C 1374.148438 924.300781 1398.449219 925.726562 1418.023438 925.574219 C 1438.5 925.425781 1466.699219 926.25 1480.875 926.625 C 1488.074219 926.851562 1494.675781 927.375 1497.300781 927.226562 C 1498.125 927.148438 1498.949219 926.925781 1498.949219 926.925781 C 1499.023438 926.925781 1502.324219 927.226562 1503.375 927.375 C 1503.976562 927.375 1504.125 927.449219 1504.726562 927.449219 C 1505.773438 927.523438 1506.675781 927.675781 1509 927.601562 C 1518.898438 927.300781 1566.824219 921.375 1588.425781 919.800781 C 1603.273438 918.675781 1621.425781 920.398438 1626 918 C 1627.425781 917.25 1626.601562 916.125 1628.023438 915.300781 C 1633.5 912.148438 1660.648438 908.398438 1677.824219 909.675781 C 1696.726562 911.023438 1718.625 920.625 1736.699219 925.273438 C 1752.148438 929.175781 1764.75 932.25 1779.75 935.773438 C 1796.25 939.675781 1814.175781 942.976562 1831.648438 947.398438 C 1849.648438 952.050781 1869 956.625 1886.175781 963.148438 C 1902.675781 969.300781 1918.800781 975.375 1932.976562 985.125 C 1947.375 995.101562 1961.25 1008.898438 1971.75 1022.625 C 1981.574219 1035.601562 1989 1050.75 1994.773438 1065 C 2000.101562 1078.125 2003.550781 1091.023438 2005.875 1104.675781 C 2008.273438 1118.699219 2008.351562 1133.925781 2008.726562 1148.101562 C 2009.023438 1161.675781 2011.050781 1175.925781 2008.050781 1188.148438 C 2005.273438 1199.550781 1995.976562 1204.425781 1992.226562 1219.273438 C 1984.425781 1250.398438 1991.476562 1337.324219 1988.851562 1371.449219 C 1987.574219 1388.925781 1983.675781 1405.5 1983.675781 1410.898438 C 1983.675781 1412.25 1983.898438 1412.101562 1984.050781 1413.449219 C 1984.726562 1419.074219 1988.101562 1444.875 1988.023438 1456.199219 C 1987.875 1463.699219 1982.625 1471.726562 1985.851562 1474.800781 C 1990.351562 1479.074219 2009.773438 1469.175781 2022.824219 1468.648438 C 2037.300781 1468.050781 2054.25 1470.824219 2068.800781 1472.324219 C 2081.925781 1473.675781 2092.425781 1474.648438 2106.375 1477.050781 C 2124 1480.050781 2146.949219 1486.050781 2165.925781 1490.023438 C 2183.398438 1493.625 2216.175781 1499.851562 2216.25 1499.851562 C 2216.324219 1499.851562 2218.949219 1500.75 2220.300781 1501.273438 C 2221.726562 1501.726562 2224.425781 1502.625 2224.425781 1502.625 C 2224.5 1502.699219 2226.898438 1504.199219 2228.101562 1504.949219 C 2229.375 1505.773438 2231.773438 1507.273438 2231.773438 1507.273438 C 2231.851562 1507.351562 2233.800781 1509.375 2234.773438 1510.425781 C 2235.75 1511.476562 2237.773438 1513.574219 2237.773438 1513.574219 C 2237.851562 1513.648438 2239.199219 1516.125 2239.949219 1517.398438 C 2240.699219 1518.601562 2242.050781 1521.074219 2242.125 1521.148438 C 2242.125 1521.226562 2242.875 1523.925781 2243.324219 1525.351562 C 2243.699219 1526.699219 2244.449219 1529.476562 2244.523438 1529.476562 C 2244.523438 1529.550781 2244.601562 1532.398438 2244.675781 1533.824219 C 2244.675781 1535.324219 2244.824219 1538.101562 2244.824219 1538.175781 C 2244.824219 1538.25 2244.226562 1541.023438 2243.925781 1542.449219 C 2243.625 1543.875 2243.101562 1546.648438 2243.023438 1546.726562 C 2243.023438 1546.726562 2241.824219 1549.273438 2241.148438 1550.625 C 2240.550781 1551.898438 2239.351562 1554.523438 2239.273438 1554.523438 C 2239.273438 1554.601562 2237.476562 1556.773438 2236.5 1557.898438 C 2235.601562 1559.023438 2233.800781 1561.199219 2233.800781 1561.273438 C 2233.726562 1561.273438 2231.476562 1563 2230.273438 1563.824219 C 2229.148438 1564.726562 2226.824219 1566.449219 2226.824219 1566.449219 C 2226.75 1566.449219 2224.125 1567.574219 2222.773438 1568.175781 C 2221.5 1568.699219 2218.875 1569.824219 2218.800781 1569.824219 C 2218.800781 1569.824219 2218.273438 1569.824219 2218.199219 1569.898438 C 2218.050781 1570.125 2218.351562 1570.574219 2218.5 1571.101562 C 2218.800781 1572.074219 2219.699219 1575.074219 2219.699219 1575.148438 C 2219.699219 1575.226562 2219.851562 1577.925781 2219.851562 1579.351562 C 2219.925781 1580.773438 2220.074219 1583.476562 2220.074219 1583.550781 C 2220.074219 1583.625 2219.476562 1586.25 2219.25 1587.675781 C 2218.949219 1589.023438 2218.425781 1591.726562 2218.425781 1591.800781 C 2218.351562 1591.800781 2217.226562 1594.273438 2216.625 1595.550781 C 2216.023438 1596.824219 2214.824219 1599.300781 2214.824219 1599.375 C 2214.75 1599.375 2213.023438 1601.550781 2212.125 1602.601562 C 2211.300781 1603.726562 2209.574219 1605.824219 2209.5 1605.898438 C 2209.5 1605.898438 2207.25 1607.550781 2206.199219 1608.375 C 2205.074219 1609.273438 2202.898438 1610.925781 2202.824219 1610.925781 C 2202.75 1610.925781 2200.273438 1612.050781 2198.925781 1612.574219 C 2197.648438 1613.101562 2195.175781 1614.226562 2195.101562 1614.226562 C 2195.023438 1614.226562 2192.324219 1614.675781 2190.976562 1614.898438 C 2189.550781 1615.125 2186.851562 1615.574219 2186.851562 1615.574219 C 2186.773438 1615.574219 2184 1615.351562 2182.648438 1615.273438 C 2181.226562 1615.125 2178.523438 1614.976562 2178.449219 1614.898438 C 2178.300781 1614.976562 2154.300781 1618.050781 2151 1624.875 C 2147.101562 1632.898438 2160.226562 1650.226562 2163.898438 1663.648438 C 2167.726562 1677.75 2170.648438 1690.5 2173.351562 1707.675781 C 2177.023438 1731.148438 2180.398438 1769.023438 2181.898438 1792.125 C 2182.949219 1808.175781 2183.324219 1819.199219 2183.101562 1833 C 2182.800781 1847.398438 2181.675781 1862.773438 2180.25 1876.800781 C 2178.976562 1889.851562 2176.574219 1904.398438 2175 1914.601562 C 2173.875 1921.574219 2171.25 1928.699219 2171.925781 1932.226562 C 2172.300781 1933.875 2173.726562 1933.726562 2174.175781 1935.675781 C 2175.75 1941.523438 2167.351562 1961.925781 2171.476562 1975.125 C 2176.726562 1992 2203.425781 2009.25 2211.976562 2025.824219 C 2218.726562 2038.800781 2220.148438 2050.351562 2222.925781 2064.148438 C 2226.148438 2079.898438 2228.476562 2099.023438 2229.300781 2115.523438 C 2230.125 2130.898438 2232 2145.824219 2228.398438 2160.148438 C 2224.574219 2175 2216.175781 2189.550781 2206.351562 2203.050781 C 2195.550781 2217.898438 2174.925781 2235.824219 2164.875 2244.601562 C 2159.699219 2249.175781 2154 2250.226562 2152.273438 2254.199219 C 2150.773438 2257.800781 2154.300781 2261.476562 2153.625 2266.875 C 2152.5 2277.375 2147.25 2300.550781 2138.023438 2311.875 C 2129.324219 2322.675781 2115 2327.175781 2100.976562 2334.148438 C 2084.324219 2342.550781 2060.925781 2350.050781 2043.976562 2357.625 C 2030.023438 2363.851562 2019 2371.125 2006.25 2375.773438 C 1994.023438 2380.199219 1981.949219 2382.824219 1968.976562 2385.375 C 1955.25 2388.074219 1941.675781 2390.324219 1925.851562 2391.226562 C 1906.574219 2392.273438 1881.074219 2388.675781 1861.648438 2389.5 C 1845.226562 2390.25 1830.976562 2393.398438 1816.574219 2394.675781 C 1803.226562 2395.875 1790.925781 2395.949219 1777.949219 2397.074219 C 1764.523438 2398.273438 1751.476562 2400.226562 1737.375 2401.648438 C 1721.925781 2403.226562 1705.199219 2404.5 1689.074219 2406 C 1672.949219 2407.5 1657.5 2409.300781 1640.625 2410.800781 C 1622.25 2412.449219 1600.949219 2414.175781 1583.101562 2415.226562 C 1567.425781 2416.125 1554.375 2416.351562 1539.148438 2416.949219 C 1522.800781 2417.625 1506.148438 2418.148438 1488.226562 2418.976562 C 1468.050781 2419.949219 1443.375 2421.375 1423.949219 2422.351562 C 1407.75 2423.25 1394.023438 2424.074219 1379.550781 2424.601562 C 1365.675781 2425.199219 1352.851562 2425.5 1338.75 2425.875 C 1323.523438 2426.324219 1308.375 2426.773438 1291.425781 2427 C 1271.773438 2427.226562 1249.125 2428.351562 1227.601562 2426.925781 C 1205.476562 2425.5 1179.449219 2421.75 1160.550781 2418.375 C 1146.375 2415.824219 1136.550781 2412.523438 1123.800781 2409.898438 C 1110.226562 2407.199219 1095.449219 2405.023438 1081.199219 2402.625 C 1066.875 2400.148438 1052.699219 2397.824219 1038.074219 2395.199219 C 1023 2392.425781 1008.074219 2391.074219 992.25 2386.425781 C 974.175781 2381.023438 950.773438 2373.898438 935.925781 2363.398438 C 923.324219 2354.398438 915.375 2342.023438 906.601562 2330.25 C 897.75 2318.476562 890.773438 2305.125 883.199219 2292.675781 C 875.773438 2280.375 867.675781 2268.601562 861.523438 2255.925781 C 855.449219 2243.324219 849.523438 2230.125 846.300781 2216.851562 C 843.226562 2204.101562 844.648438 2190.898438 842.175781 2178.074219 C 839.773438 2165.023438 835.125 2151.976562 831.601562 2139.148438 C 828.226562 2126.625 823.800781 2115.675781 821.324219 2102.023438 C 818.324219 2085.824219 817.351562 2066.699219 816.300781 2048.023438 C 815.175781 2027.851562 815.925781 2004.449219 815.25 1985.175781 C 814.726562 1968.75 813.226562 1955.101562 812.925781 1939.574219 C 812.699219 1923.449219 813.976562 1890.300781 813.898438 1890 C 813.898438 1889.925781 813 1886.925781 812.550781 1885.351562 C 812.101562 1883.773438 811.199219 1880.773438 811.199219 1880.699219 C 811.125 1880.625 811.050781 1877.476562 810.976562 1875.898438 C 810.898438 1874.25 810.75 1871.101562 810.75 1871.023438 C 810.75 1870.949219 811.351562 1867.875 811.648438 1866.300781 C 811.949219 1864.726562 812.625 1861.574219 812.625 1861.574219 C 812.625 1861.5 813.976562 1858.648438 814.648438 1857.148438 C 815.324219 1855.726562 816.675781 1852.875 816.75 1852.800781 C 816.75 1852.726562 818.773438 1850.25 819.75 1849.050781 C 820.800781 1847.773438 822.75 1845.300781 822.824219 1845.226562 C 822.824219 1845.226562 825.375 1843.273438 826.648438 1842.300781 C 827.925781 1841.324219 830.476562 1839.449219 830.476562 1839.375 C 830.550781 1839.375 833.476562 1838.101562 834.976562 1837.5 C 836.398438 1836.898438 838.875 1836.226562 839.175781 1835.699219 C 839.25 1835.476562 839.101562 1835.476562 839.101562 1835.175781 C 838.875 1832.851562 839.398438 1812.824219 838.726562 1802.851562 C 838.199219 1794.074219 836.25 1787.699219 835.726562 1778.324219 C 834.976562 1765.800781 835.800781 1749.300781 836.023438 1734.523438 C 836.25 1719.148438 834.601562 1702.125 837.074219 1687.648438 C 839.25 1674.675781 844.199219 1660.574219 848.699219 1651.648438 C 851.773438 1645.574219 860.023438 1641.824219 858.824219 1637.625 C 856.800781 1630.875 827.175781 1630.125 816.601562 1621.199219 C 806.773438 1612.875 801.601562 1599.375 796.425781 1587.375 C 791.25 1575.375 787.800781 1562.699219 785.625 1549.199219 C 783.375 1534.726562 783.601562 1516.875 783.898438 1503.074219 C 784.125 1491.824219 786.449219 1473.675781 786.300781 1472.398438 C 786.300781 1472.324219 786.226562 1472.25 786.226562 1472.25 C 786.226562 1472.25 785.851562 1469.773438 785.699219 1468.5 C 785.476562 1467.300781 785.101562 1464.824219 785.101562 1464.75 C 785.101562 1464.75 785.324219 1462.273438 785.476562 1461 C 785.625 1459.726562 785.851562 1457.25 785.851562 1457.25 C 785.851562 1457.175781 786.675781 1454.699219 787.050781 1453.648438 C 787.425781 1452.75 787.800781 1451.851562 787.949219 1451.25 C 788.023438 1450.800781 787.949219 1450.800781 788.023438 1450.199219 C 788.476562 1446.449219 793.574219 1421.925781 794.773438 1409.175781 C 795.824219 1398.074219 797.175781 1381.050781 795.601562 1377.976562 C 795.226562 1377.226562 794.699219 1377.375 794.101562 1377 C 793.199219 1376.398438 790.726562 1374.75 790.648438 1374.675781 C 790.648438 1374.675781 788.851562 1372.648438 787.875 1371.601562 C 786.976562 1370.550781 785.175781 1368.601562 785.101562 1368.523438 C 785.101562 1368.523438 783.824219 1366.125 783.148438 1364.851562 C 782.476562 1363.648438 781.199219 1361.25 781.199219 1361.25 C 781.125 1361.175781 780.449219 1358.550781 780.148438 1357.199219 C 779.773438 1355.851562 779.101562 1353.226562 779.101562 1353.226562 C 779.101562 1353.148438 779.101562 1350.449219 779.023438 1349.023438 C 779.023438 1347.675781 779.023438 1344.898438 779.023438 1344.898438 M 1146.449219 1610.101562 C 1148.324219 1652.851562 1152.226562 1662.75 1155.148438 1674.75 C 1158.601562 1689.300781 1163.324219 1705.949219 1166.398438 1722.976562 C 1169.851562 1741.800781 1173.375 1763.773438 1174.273438 1783.125 C 1175.101562 1801.125 1174.425781 1819.199219 1172.324219 1835.398438 C 1170.449219 1849.949219 1165.5 1866.375 1163.398438 1876.199219 C 1162.199219 1881.898438 1161 1883.699219 1160.625 1889.550781 C 1159.949219 1900.5 1165.949219 1921.5 1164.148438 1937.324219 C 1162.273438 1953.601562 1147.726562 1973.25 1149.148438 1985.851562 C 1150.199219 1994.699219 1158.898438 2002.425781 1161.523438 2007.148438 C 1162.875 2009.550781 1163.25 2010.523438 1164.375 2012.476562 C 1165.800781 2014.949219 1166.851562 2017.800781 1169.699219 2020.726562 C 1174.648438 2025.75 1185.300781 2031.300781 1194.523438 2037.148438 C 1205.851562 2044.425781 1225.273438 2056.875 1232.625 2060.851562 C 1235.476562 2062.351562 1236.601562 2063.476562 1238.773438 2063.625 C 1240.949219 2063.773438 1242.375 2062.5 1245.601562 2061.675781 C 1253.175781 2059.726562 1274.25 2055.898438 1283.625 2052.75 C 1289.476562 2050.875 1294.5 2051.023438 1297.351562 2046.824219 C 1301.625 2040.449219 1297.050781 2023.949219 1297.800781 2012.023438 C 1298.625 1999.351562 1298.175781 1985.25 1302.074219 1972.875 C 1306.050781 1960.199219 1315.050781 1948.648438 1321.800781 1936.800781 C 1328.398438 1925.175781 1339.726562 1915.125 1342.050781 1902.523438 C 1344.523438 1889.101562 1336.351562 1880.398438 1334.476562 1858.199219 C 1328.925781 1792.425781 1334.324219 1566.523438 1334.625 1465.5 C 1334.773438 1401.898438 1335.523438 1351.125 1335.300781 1310.25 C 1335.148438 1283.550781 1336.050781 1263.300781 1334.175781 1244.101562 C 1332.75 1229.175781 1329.523438 1217.550781 1327.199219 1204.574219 C 1324.875 1191.898438 1323.074219 1180.199219 1320.226562 1167.074219 C 1317.074219 1152.148438 1309.648438 1122.226562 1308.601562 1119.601562 C 1308.523438 1119.375 1308.449219 1119.226562 1308.375 1119.226562 C 1308.226562 1119.300781 1308.074219 1121.324219 1308.074219 1121.398438 C 1308 1121.398438 1307.023438 1123.800781 1306.5 1125.074219 C 1306.050781 1126.273438 1305 1128.75 1305 1128.75 C 1305 1128.824219 1303.425781 1130.925781 1302.675781 1131.976562 C 1301.851562 1133.101562 1300.351562 1135.199219 1300.273438 1135.199219 C 1300.125 1135.5 1277.023438 1193.476562 1260.824219 1219.273438 C 1244.851562 1244.773438 1221.976562 1268.324219 1203.898438 1289.398438 C 1188.449219 1307.398438 1164.523438 1325.023438 1159.425781 1338.300781 C 1156.648438 1345.425781 1159.726562 1349.550781 1159.574219 1357.125 C 1159.273438 1368.523438 1157.773438 1385.851562 1157.25 1400.023438 C 1156.648438 1413.898438 1156.648438 1426.800781 1156.199219 1441.425781 C 1155.75 1457.925781 1155.300781 1475.925781 1154.476562 1494.148438 C 1153.648438 1513.875 1152.601562 1535.773438 1151.25 1555.648438 C 1149.898438 1574.324219 1146.449219 1610.101562 1146.449219 1610.101562 M 1630.949219 2008.800781 C 1667.773438 1981.199219 1665.898438 2005.273438 1673.023438 2015.324219 C 1680.449219 2025.75 1694.699219 2034.523438 1705.5 2040.375 C 1714.5 2045.324219 1723.726562 2048.175781 1732.5 2050.050781 C 1740.375 2051.699219 1746.824219 2051.699219 1755.449219 2051.851562 C 1766.699219 2052.074219 1783.199219 2055.300781 1794.300781 2050.351562 C 1805.699219 2045.324219 1815.824219 2032.875 1822.648438 2021.25 C 1829.925781 2008.949219 1832.175781 1996.949219 1835.851562 1978.050781 C 1842.449219 1943.773438 1846.273438 1868.101562 1848.300781 1830.824219 C 1849.5 1808.175781 1849.425781 1792.574219 1849.5 1776 C 1849.574219 1762.273438 1850.851562 1751.101562 1848.976562 1738.425781 C 1847.023438 1724.851562 1841.101562 1710.976562 1837.351562 1697.324219 C 1833.601562 1683.824219 1829.175781 1677.523438 1826.550781 1657.050781 C 1818.75 1596 1828.125 1373.101562 1829.101562 1286.324219 C 1829.625 1239.375 1839.824219 1196.023438 1830.675781 1177.800781 C 1826.476562 1169.25 1817.625 1169.175781 1811.625 1163.925781 C 1805.324219 1158.449219 1801.574219 1147.726562 1793.925781 1145.25 C 1785.300781 1142.398438 1773.074219 1148.851562 1761.523438 1151.023438 C 1748.25 1153.574219 1732.574219 1157.324219 1718.699219 1159.5 C 1705.800781 1161.523438 1690.875 1164.75 1681.125 1163.851562 C 1674.601562 1163.324219 1669.351562 1156.125 1665.300781 1159.125 C 1650.976562 1169.925781 1666.125 1276.574219 1666.273438 1362.523438 C 1666.425781 1511.101562 1695.75 1891.949219 1665.074219 1971.074219 C 1656.226562 1994.023438 1630.949219 2008.800781 1630.949219 2008.800781 " clip-rule="nonzero"/></clipPath><clipPath id="595c9ef6f2"><path d="M 1579 1952.074219 L 1723.710938 1952.074219 L 1723.710938 2070 L 1579 2070 Z M 1579 1952.074219 " clip-rule="nonzero"/></clipPath><clipPath id="4a1f07b9ad"><path d="M 1635.824219 1957.273438 C 1711.050781 2003.625 1712.925781 2005.199219 1715.476562 2008.351562 C 1717.949219 2011.574219 1720.050781 2015.324219 1721.398438 2019.148438 C 1722.824219 2022.898438 1723.574219 2027.175781 1723.648438 2031.226562 C 1723.726562 2035.273438 1723.125 2039.550781 1721.925781 2043.375 C 1720.726562 2047.199219 1718.773438 2051.101562 1716.375 2054.324219 C 1713.976562 2057.625 1710.898438 2060.625 1707.601562 2062.949219 C 1704.300781 2065.273438 1700.476562 2067.148438 1696.574219 2068.351562 C 1692.675781 2069.476562 1688.398438 2070.074219 1684.351562 2069.925781 C 1680.375 2069.773438 1676.101562 2068.949219 1672.351562 2067.523438 C 1668.523438 2066.101562 1664.851562 2063.925781 1661.699219 2061.375 C 1658.550781 2058.824219 1655.699219 2055.601562 1653.523438 2052.148438 C 1651.425781 2048.773438 1649.699219 2044.800781 1648.800781 2040.824219 C 1647.824219 2036.925781 1647.523438 2032.648438 1647.898438 2028.601562 C 1648.199219 2024.550781 1649.324219 2020.425781 1650.898438 2016.675781 C 1652.550781 2013 1654.875 2009.398438 1657.648438 2006.398438 C 1660.351562 2003.398438 1663.726562 2000.699219 1667.25 1998.75 C 1670.773438 1996.800781 1674.824219 1995.375 1678.800781 1994.625 C 1682.773438 1993.875 1687.125 1993.800781 1691.101562 1994.398438 C 1695.074219 1994.925781 1699.199219 1996.273438 1702.800781 1998.074219 C 1706.398438 1999.875 1709.925781 2002.425781 1712.773438 2005.273438 C 1715.550781 2008.199219 1718.101562 2011.726562 1719.824219 2015.324219 C 1721.625 2019 1722.824219 2023.125 1723.351562 2027.101562 C 1723.875 2031.148438 1723.726562 2035.425781 1722.898438 2039.398438 C 1722.148438 2043.375 1720.648438 2047.425781 1718.625 2050.875 C 1716.601562 2054.398438 1713.824219 2057.699219 1710.824219 2060.398438 C 1707.824219 2063.101562 1704.148438 2065.351562 1700.398438 2066.925781 C 1696.726562 2068.5 1692.523438 2069.550781 1688.476562 2069.851562 C 1684.425781 2070.148438 1680.148438 2069.773438 1676.25 2068.726562 C 1672.351562 2067.75 1669.5 2066.25 1665 2063.773438 C 1657.574219 2059.726562 1647.074219 2051.101562 1636.800781 2044.648438 C 1625.023438 2037.300781 1605.601562 2027.476562 1597.875 2022.375 C 1594.425781 2020.050781 1592.773438 2018.925781 1590.675781 2016.898438 C 1588.5 2014.800781 1586.550781 2012.324219 1584.898438 2009.773438 C 1583.324219 2007.226562 1581.976562 2004.449219 1581.074219 2001.601562 C 1580.101562 1998.75 1579.5 1995.675781 1579.273438 1992.675781 C 1579.050781 1989.675781 1579.199219 1986.601562 1579.726562 1983.601562 C 1580.175781 1980.675781 1581.074219 1977.675781 1582.273438 1974.898438 C 1583.476562 1972.125 1585.050781 1969.425781 1586.851562 1967.023438 C 1588.648438 1964.625 1590.824219 1962.449219 1593.148438 1960.5 C 1595.476562 1958.625 1598.175781 1956.976562 1600.875 1955.699219 C 1603.574219 1954.425781 1606.574219 1953.449219 1609.5 1952.851562 C 1612.425781 1952.25 1615.574219 1952.023438 1618.574219 1952.175781 C 1621.574219 1952.324219 1624.648438 1952.851562 1627.5 1953.675781 C 1630.351562 1954.5 1635.824219 1957.273438 1635.824219 1957.273438 " clip-rule="nonzero"/></clipPath><clipPath id="f683af68e9"><path d="M 628.875 407.773438 L 2329 407.773438 L 2329 1568 L 628.875 1568 Z M 628.875 407.773438 " clip-rule="nonzero"/></clipPath><clipPath id="3f5fcfde1d"><path d="M 628.875 757.726562 C 640.574219 707.925781 655.425781 694.574219 669.226562 687.75 C 683.175781 680.851562 701.175781 680.25 717.226562 679.5 C 733.351562 678.675781 754.726562 682.050781 765.75 682.875 C 771.449219 683.324219 773.398438 684.898438 778.800781 684 C 788.699219 682.425781 803.851562 671.699219 819.148438 666.75 C 837.898438 660.75 862.351562 653.550781 883.800781 652.648438 C 904.800781 651.75 932.101562 657 946.648438 660.824219 C 954.898438 663 957.148438 666.824219 965.25 668.476562 C 978.601562 671.101562 1009.800781 667.574219 1020.824219 668.699219 C 1025.625 669.226562 1027.050781 671.101562 1030.875 670.800781 C 1036.5 670.425781 1043.101562 664.949219 1050.898438 663.449219 C 1061.101562 661.425781 1074.898438 665.550781 1087.5 662.101562 C 1102.875 657.824219 1119 642.375 1135.273438 635.851562 C 1150.648438 629.699219 1166.699219 630.675781 1182.375 623.476562 C 1200.75 615.074219 1225.949219 597 1237.5 585.601562 C 1244.175781 579 1249.351562 573.824219 1250.625 567.074219 C 1251.898438 560.398438 1242.824219 550.5 1245.375 545.324219 C 1247.851562 540.074219 1265.925781 537.523438 1265.699219 535.800781 C 1265.550781 534.601562 1258.726562 534.675781 1256.324219 534.074219 C 1254.824219 533.773438 1253.925781 533.398438 1252.726562 533.023438 C 1251.601562 532.726562 1249.199219 532.050781 1249.199219 532.050781 C 1249.125 531.976562 1247.023438 530.773438 1245.976562 530.175781 C 1244.925781 529.5 1242.75 528.300781 1242.75 528.300781 C 1242.675781 528.226562 1240.949219 526.574219 1240.050781 525.675781 C 1239.148438 524.851562 1237.425781 523.125 1237.351562 523.125 C 1237.351562 523.050781 1236.074219 521.023438 1235.398438 519.976562 C 1234.726562 518.925781 1233.449219 516.898438 1233.449219 516.824219 C 1233.375 516.75 1232.625 514.5 1232.25 513.300781 C 1231.875 512.101562 1231.050781 509.773438 1231.050781 509.773438 C 1231.050781 509.699219 1230.898438 507.300781 1230.75 506.023438 C 1230.675781 504.824219 1230.449219 502.351562 1230.449219 502.351562 C 1230.449219 502.273438 1230.898438 499.875 1231.125 498.675781 C 1231.273438 497.476562 1231.648438 495.074219 1231.726562 495 C 1231.726562 494.925781 1232.699219 492.675781 1233.148438 491.550781 C 1233.675781 490.425781 1234.574219 488.175781 1234.648438 488.175781 C 1234.648438 488.101562 1236.148438 486.148438 1236.824219 485.175781 C 1237.574219 484.199219 1239.074219 482.25 1239.074219 482.175781 C 1239.148438 482.175781 1241.023438 480.675781 1242 479.851562 C 1242.976562 479.101562 1244.851562 477.523438 1244.851562 477.523438 C 1244.925781 477.449219 1247.101562 476.476562 1248.226562 475.949219 C 1249.351562 475.425781 1251.523438 474.375 1251.601562 474.300781 C 1251.675781 474.300781 1254.074219 473.851562 1255.273438 473.625 C 1256.476562 473.324219 1258.875 472.875 1258.875 472.875 C 1258.949219 472.875 1261.351562 472.949219 1262.625 473.023438 C 1263.824219 473.101562 1266.300781 473.175781 1266.300781 473.175781 C 1266.375 473.175781 1266.375 473.175781 1266.375 473.175781 C 1266.601562 473.175781 1338.226562 472.050781 1375.5 472.199219 C 1414.5 472.425781 1456.875 472.050781 1495.273438 474.300781 C 1531.050781 476.324219 1567.5 480.449219 1598.476562 484.351562 C 1623.976562 487.5 1647.074219 491.476562 1668.074219 494.925781 C 1685.625 497.773438 1716.148438 503.25 1716.226562 503.25 C 1716.300781 503.324219 1718.625 504.074219 1719.824219 504.449219 C 1720.949219 504.824219 1723.273438 505.648438 1723.351562 505.648438 C 1723.425781 505.648438 1725.449219 507 1726.5 507.675781 C 1727.550781 508.351562 1729.648438 509.625 1729.648438 509.625 C 1729.726562 509.625 1729.726562 509.625 1729.726562 509.625 C 1729.726562 509.699219 1731.449219 511.425781 1732.273438 512.324219 C 1733.175781 513.226562 1734.824219 515.023438 1734.898438 515.101562 C 1734.898438 515.101562 1736.101562 517.199219 1736.773438 518.324219 C 1737.375 519.375 1738.574219 521.550781 1738.648438 521.550781 C 1738.648438 521.625 1739.324219 523.949219 1739.699219 525.148438 C 1740 526.351562 1740.675781 528.675781 1740.75 528.75 C 1740.75 528.75 1740.523438 529.273438 1740.75 529.5 C 1742.175781 531 1773.148438 531.898438 1773.300781 531.898438 C 1773.375 531.898438 1775.851562 532.199219 1777.125 532.273438 C 1778.324219 532.425781 1780.800781 532.648438 1780.875 532.726562 C 1780.949219 532.726562 1783.273438 533.550781 1784.476562 534 C 1785.675781 534.449219 1788 535.273438 1788.074219 535.273438 C 1788.074219 535.273438 1788.601562 536.101562 1789.199219 536.023438 C 1792.199219 536.023438 1810.425781 523.648438 1815 517.800781 C 1817.699219 514.351562 1817.925781 512.476562 1818.898438 507.824219 C 1820.925781 498.074219 1819.050781 474.148438 1820.925781 461.175781 C 1822.273438 451.648438 1825.726562 441.375 1827.074219 436.648438 C 1827.601562 434.773438 1827.898438 433.949219 1828.351562 432.601562 C 1828.800781 431.25 1829.625 428.625 1829.625 428.550781 C 1829.625 428.476562 1831.125 426.074219 1831.800781 424.875 C 1832.550781 423.675781 1833.976562 421.273438 1834.050781 421.273438 C 1834.050781 421.199219 1836.074219 419.25 1837.050781 418.199219 C 1838.101562 417.226562 1840.050781 415.273438 1840.125 415.199219 C 1840.125 415.199219 1842.523438 413.773438 1843.726562 413.023438 C 1845 412.273438 1847.324219 410.851562 1847.398438 410.851562 C 1847.476562 410.773438 1850.101562 409.949219 1851.449219 409.574219 C 1852.800781 409.125 1855.5 408.300781 1855.574219 408.300781 C 1855.574219 408.300781 1858.425781 408.148438 1859.773438 408.074219 C 1861.199219 407.925781 1863.976562 407.773438 1864.050781 407.773438 C 1864.125 407.773438 1866.898438 408.300781 1868.25 408.523438 C 1869.675781 408.824219 1872.375 409.351562 1872.449219 409.351562 C 1872.523438 409.351562 1875.074219 410.476562 1876.351562 411.074219 C 1877.625 411.675781 1880.175781 412.800781 1880.25 412.875 C 1880.25 412.875 1882.5 414.601562 1883.625 415.5 C 1884.675781 416.398438 1886.925781 418.050781 1886.925781 418.125 C 1887 418.199219 1888.726562 420.375 1889.550781 421.5 C 1890.449219 422.625 1892.175781 424.800781 1892.175781 424.875 C 1892.25 424.875 1893.375 427.425781 1893.976562 428.773438 C 1894.5 430.050781 1895.699219 432.601562 1895.699219 432.601562 C 1895.699219 432.675781 1896.226562 435.449219 1896.449219 436.800781 C 1896.675781 438.226562 1897.199219 441 1897.199219 441 C 1897.199219 441.074219 1897.050781 443.851562 1896.976562 445.273438 C 1896.898438 446.699219 1896.675781 449.476562 1896.675781 449.550781 C 1896.675781 449.773438 1905.824219 479.851562 1905.074219 494.324219 C 1904.324219 508.425781 1896.300781 528.601562 1892.773438 535.5 C 1891.425781 538.050781 1890 537.523438 1889.023438 540.300781 C 1885.875 549.523438 1879.726562 600.824219 1889.101562 606 C 1898.476562 611.25 1931.101562 577.875 1945.875 570.75 C 1954.5 566.625 1963.574219 564.75 1967.625 563.101562 C 1969.199219 562.425781 1969.800781 562.050781 1970.925781 561.523438 C 1972.050781 561 1974.148438 560.023438 1974.226562 559.949219 C 1974.300781 559.949219 1976.625 559.5 1977.824219 559.273438 C 1979.023438 559.050781 1981.351562 558.523438 1981.425781 558.523438 C 1981.425781 558.523438 1983.824219 558.675781 1985.023438 558.75 C 1986.300781 558.75 1988.625 558.898438 1988.699219 558.898438 C 1988.773438 558.898438 1991.023438 559.574219 1992.226562 559.875 C 1993.351562 560.25 1995.675781 560.925781 1995.75 560.925781 C 1995.75 561 1997.851562 562.199219 1998.898438 562.800781 C 1999.949219 563.398438 2001.976562 564.601562 2002.050781 564.601562 C 2002.050781 564.675781 2003.773438 566.324219 2004.675781 567.148438 C 2005.5 568.050781 2007.226562 569.699219 2007.300781 569.699219 C 2007.300781 569.773438 2008.574219 571.800781 2009.25 572.851562 C 2009.851562 573.824219 2011.125 575.851562 2011.199219 575.925781 C 2011.199219 576 2011.949219 578.25 2012.324219 579.375 C 2012.699219 580.574219 2013.449219 582.824219 2013.449219 582.898438 C 2013.449219 582.898438 2013.601562 585.300781 2013.75 586.5 C 2013.824219 587.699219 2013.976562 590.101562 2013.976562 590.175781 C 2013.976562 590.175781 2013.601562 592.574219 2013.375 593.773438 C 2013.226562 594.976562 2012.851562 597.300781 2012.773438 597.375 C 2012.773438 597.449219 2011.800781 599.625 2011.351562 600.75 C 2010.898438 601.875 2009.925781 604.050781 2009.925781 604.050781 C 2009.925781 604.125 2009.925781 604.125 2009.925781 604.125 C 2009.851562 604.125 2008.425781 606 2007.675781 606.976562 C 2006.925781 607.949219 2005.5 609.898438 2005.5 609.898438 C 2005.425781 609.976562 2003.550781 611.476562 2002.648438 612.226562 C 2001.675781 612.976562 1999.800781 614.476562 1999.800781 614.476562 C 1999.800781 614.550781 1999.800781 614.550781 1999.800781 614.550781 C 1999.574219 614.699219 1932.898438 657.824219 1932.449219 662.023438 C 1932.375 662.625 1933.050781 662.699219 1933.5 663.074219 C 1934.101562 663.824219 1935.898438 665.699219 1935.898438 665.699219 C 1935.898438 665.699219 1935.898438 665.699219 1935.976562 665.699219 C 1935.976562 665.773438 1936.273438 667.949219 1937.625 668.699219 C 1943.175781 671.699219 1980.898438 668.699219 1993.050781 665.324219 C 1999.574219 663.523438 2000.175781 661.351562 2007.226562 657.976562 C 2026.949219 648.523438 2110.875 611.773438 2121.75 607.351562 C 2123.550781 606.601562 2123.925781 606.523438 2124.976562 606.148438 C 2126.023438 605.773438 2128.125 604.949219 2128.125 604.949219 C 2128.199219 604.949219 2130.375 604.726562 2131.5 604.574219 C 2132.625 604.425781 2134.875 604.125 2134.875 604.125 C 2134.949219 604.125 2137.125 604.425781 2138.25 604.574219 C 2139.375 604.726562 2141.625 605.023438 2141.625 605.023438 C 2141.699219 605.023438 2143.800781 605.851562 2144.851562 606.226562 C 2145.898438 606.601562 2148 607.425781 2148 607.425781 C 2148.074219 607.5 2149.875 608.699219 2150.773438 609.375 C 2151.75 610.050781 2153.550781 611.324219 2153.625 611.324219 C 2153.625 611.324219 2155.125 613.050781 2155.875 613.875 C 2156.625 614.699219 2158.050781 616.425781 2158.050781 616.425781 C 2158.125 616.5 2159.101562 618.449219 2159.625 619.425781 C 2160.148438 620.476562 2161.199219 622.425781 2161.199219 622.5 C 2161.273438 622.5 2161.726562 624.675781 2162.023438 625.800781 C 2162.324219 626.851562 2162.851562 629.023438 2162.851562 629.101562 C 2162.851562 629.101562 2162.851562 631.351562 2162.851562 632.476562 C 2162.773438 633.601562 2162.773438 635.851562 2162.773438 635.851562 C 2162.773438 635.925781 2162.25 638.101562 2161.949219 639.148438 C 2161.726562 640.273438 2161.199219 642.449219 2161.125 642.449219 C 2161.125 642.523438 2160.074219 644.476562 2159.550781 645.523438 C 2159.023438 646.5 2157.976562 648.449219 2157.976562 648.523438 C 2157.898438 648.523438 2156.476562 650.175781 2155.726562 651 C 2154.976562 651.898438 2153.476562 653.550781 2153.398438 653.550781 C 2153.398438 653.625 2151.226562 655.125 2150.625 655.5 C 2150.324219 655.648438 2150.023438 655.800781 2150.023438 655.875 C 2150.398438 656.625 2204.773438 640.351562 2227.5 635.476562 C 2244.976562 631.726562 2262.375 629.25 2274.449219 627.75 C 2281.949219 626.773438 2288.925781 626.25 2292.75 626.023438 C 2294.550781 625.875 2295.300781 625.949219 2296.574219 625.949219 C 2297.851562 625.949219 2300.398438 625.875 2300.398438 625.875 C 2300.476562 625.875 2302.875 626.398438 2304.148438 626.699219 C 2305.425781 627 2307.824219 627.523438 2307.898438 627.601562 C 2307.898438 627.601562 2310.148438 628.726562 2311.273438 629.25 C 2312.476562 629.851562 2314.648438 630.976562 2314.726562 630.976562 C 2314.726562 631.050781 2316.675781 632.625 2317.648438 633.449219 C 2318.625 634.273438 2320.5 635.925781 2320.5 636 C 2320.574219 636 2322 638.023438 2322.75 639.074219 C 2323.5 640.125 2325 642.148438 2325 642.148438 C 2325 642.226562 2325.898438 644.550781 2326.425781 645.75 C 2326.875 646.949219 2327.851562 649.199219 2327.851562 649.273438 C 2327.851562 649.351562 2328.148438 651.824219 2328.375 653.101562 C 2328.523438 654.300781 2328.898438 656.773438 2328.898438 656.851562 C 2328.898438 656.925781 2328.601562 659.398438 2328.523438 660.675781 C 2328.375 661.949219 2328.074219 664.425781 2328.074219 664.5 C 2328.074219 664.5 2327.25 666.898438 2326.800781 668.101562 C 2326.351562 669.300781 2325.523438 671.625 2325.523438 671.699219 C 2325.523438 671.699219 2324.101562 673.800781 2323.425781 674.851562 C 2322.675781 675.898438 2321.324219 678 2321.25 678 C 2321.25 678 2321.25 678 2321.25 678.074219 C 2321.25 678.074219 2319.375 679.726562 2318.476562 680.625 C 2317.5 681.449219 2315.699219 683.175781 2315.625 683.175781 C 2315.625 683.25 2313.449219 684.449219 2312.324219 685.050781 C 2311.199219 685.648438 2309.023438 686.851562 2308.949219 686.851562 C 2308.875 686.925781 2306.476562 687.523438 2305.273438 687.898438 C 2304 688.199219 2301.601562 688.875 2301.523438 688.875 C 2301.449219 688.875 2297.25 689.476562 2296.199219 690.449219 C 2295.523438 691.125 2295.675781 692.101562 2295.300781 693 C 2294.925781 694.050781 2294.101562 696.375 2294.101562 696.449219 C 2294.101562 696.523438 2292.75 698.476562 2292.074219 699.523438 C 2291.398438 700.5 2290.125 702.523438 2290.050781 702.523438 C 2290.050781 702.601562 2288.25 704.175781 2287.425781 705 C 2286.523438 705.824219 2284.726562 707.476562 2284.726562 707.476562 C 2284.648438 707.476562 2282.550781 708.675781 2281.5 709.273438 C 2280.449219 709.800781 2278.351562 711 2278.351562 711 C 2278.199219 711.074219 2262.601562 714.75 2262.601562 716.324219 C 2262.523438 717.375 2266.726562 717.148438 2269.273438 719.25 C 2275.273438 724.125 2286.074219 741.148438 2292.824219 752.699219 C 2299.273438 763.875 2305.648438 775.273438 2309.023438 787.351562 C 2312.398438 799.273438 2313.523438 812.25 2313.148438 824.625 C 2312.773438 837.074219 2310.523438 849.449219 2306.773438 861.898438 C 2302.726562 875.324219 2297.773438 890.476562 2289 902.476562 C 2279.699219 915.074219 2265.074219 926.773438 2251.351562 935.101562 C 2238.148438 943.125 2222.699219 946.351562 2208.523438 952.125 C 2194.425781 957.898438 2172 959.324219 2166.523438 969.601562 C 2161.050781 979.726562 2172 998.773438 2174.925781 1012.949219 C 2177.851562 1026.75 2181.601562 1039.199219 2184 1053.523438 C 2186.550781 1069.273438 2188.574219 1087.351562 2189.324219 1103.550781 C 2189.925781 1118.699219 2189.699219 1132.875 2188.425781 1147.726562 C 2187.074219 1163.101562 2184.226562 1178.175781 2181.148438 1194.300781 C 2177.773438 1212.074219 2172.75 1233 2168.773438 1249.949219 C 2165.324219 1264.351562 2161.5 1275.824219 2158.800781 1289.699219 C 2155.949219 1304.699219 2154.976562 1322.773438 2152.5 1336.875 C 2150.476562 1348.5 2146.800781 1359.675781 2145.675781 1368.449219 C 2144.925781 1374.75 2145.226562 1378.050781 2145.300781 1384.726562 C 2145.449219 1395.675781 2144.773438 1413.449219 2147.699219 1427.773438 C 2150.773438 1442.925781 2157.75 1458.976562 2164.125 1473.226562 C 2170.125 1486.648438 2180.851562 1502.773438 2184.601562 1511.023438 C 2186.398438 1514.851562 2187.226562 1516.648438 2187.976562 1519.648438 C 2188.726562 1522.648438 2189.101562 1525.800781 2189.175781 1528.875 C 2189.175781 1531.949219 2188.800781 1535.101562 2188.050781 1538.101562 C 2187.375 1541.023438 2186.25 1544.023438 2184.824219 1546.726562 C 2183.398438 1549.5 2181.601562 1552.125 2179.574219 1554.449219 C 2177.550781 1556.699219 2175.226562 1558.875 2172.675781 1560.601562 C 2170.199219 1562.398438 2167.351562 1563.824219 2164.5 1564.949219 C 2161.648438 1566.074219 2158.574219 1566.824219 2155.5 1567.199219 C 2152.425781 1567.648438 2149.273438 1567.648438 2146.199219 1567.273438 C 2143.199219 1566.898438 2140.050781 1566.226562 2137.199219 1565.101562 C 2134.351562 1564.050781 2131.5 1562.550781 2128.949219 1560.824219 C 2126.398438 1559.101562 2124.074219 1557 2121.976562 1554.75 C 2119.949219 1552.425781 2118.824219 1550.699219 2116.648438 1547.101562 C 2112.074219 1539.601562 2104.5 1511.101562 2097.601562 1510.425781 C 2091.523438 1509.898438 2087.023438 1529.851562 2078.023438 1535.324219 C 2067.898438 1541.625 2044.726562 1544.550781 2038.273438 1543.273438 C 2035.949219 1542.824219 2034.601562 1540.425781 2033.851562 1540.425781 C 2033.625 1540.5 2033.625 1540.726562 2033.324219 1540.949219 C 2032.648438 1541.550781 2029.574219 1544.324219 2029.5 1544.324219 C 2029.5 1544.398438 2026.5 1545.976562 2025 1546.726562 C 2023.5 1547.550781 2020.5 1549.125 2020.425781 1549.125 C 2020.351562 1549.199219 2017.125 1549.949219 2015.476562 1550.398438 C 2013.75 1550.773438 2010.523438 1551.601562 2010.449219 1551.675781 C 2010.375 1551.675781 2007 1551.675781 2005.351562 1551.675781 C 2003.625 1551.675781 2000.25 1551.675781 2000.175781 1551.675781 C 2000.101562 1551.675781 1996.875 1550.851562 1995.148438 1550.476562 C 1993.5 1550.023438 1990.273438 1549.273438 1990.199219 1549.273438 C 1990.125 1549.199219 1987.125 1547.625 1985.625 1546.875 C 1984.125 1546.050781 1981.125 1544.550781 1981.050781 1544.476562 C 1981.050781 1544.476562 1978.5 1542.226562 1977.226562 1541.101562 C 1975.949219 1539.976562 1973.398438 1537.726562 1973.324219 1537.726562 C 1973.25 1537.5 1968.074219 1531.273438 1967.476562 1529.925781 C 1967.324219 1529.550781 1967.476562 1529.550781 1967.324219 1529.101562 C 1966.125 1526.476562 1955.476562 1513.5 1948.648438 1502.625 C 1938.824219 1487.023438 1924.875 1461 1915.648438 1443.148438 C 1908.226562 1428.976562 1902.75 1417.199219 1896.75 1404.300781 C 1890.976562 1391.773438 1886.023438 1381.574219 1880.175781 1367.023438 C 1872.226562 1347.226562 1862.101562 1318.125 1854.601562 1295.925781 C 1848.074219 1276.5 1842.226562 1258.425781 1837.425781 1241.023438 C 1833.226562 1225.648438 1830.75 1212.375 1827.074219 1197.074219 C 1823.023438 1180.351562 1816.199219 1161.226562 1814.25 1144.648438 C 1812.523438 1130.023438 1814.773438 1115.476562 1814.550781 1102.800781 C 1814.324219 1092.300781 1819.050781 1078.5 1813.050781 1074 C 1804.050781 1067.101562 1769.925781 1088.324219 1748.476562 1088.023438 C 1727.25 1087.726562 1698.523438 1083.675781 1685.101562 1072.351562 C 1674.226562 1063.199219 1666.726562 1041.824219 1667.699219 1032.824219 C 1668.300781 1027.726562 1676.023438 1023 1676.023438 1021.574219 C 1675.949219 1021.273438 1675.5 1021.050781 1675.425781 1020.976562 C 1675.425781 1020.976562 1674.300781 1018.800781 1673.699219 1017.675781 C 1673.101562 1016.625 1671.976562 1014.449219 1671.898438 1014.375 C 1671.898438 1014.300781 1671.300781 1011.976562 1671 1010.773438 C 1670.699219 1009.5 1670.101562 1007.175781 1670.101562 1007.101562 C 1670.101562 1007.023438 1670.101562 1004.550781 1670.023438 1003.351562 C 1670.023438 1002.226562 1670.773438 1000.351562 1670.023438 999.976562 C 1667.699219 998.625 1654.273438 1010.023438 1641.523438 1017.074219 C 1617 1030.648438 1542 1067.550781 1531.425781 1072.574219 C 1529.699219 1073.398438 1529.398438 1073.476562 1528.351562 1073.925781 C 1527.300781 1074.375 1525.273438 1075.273438 1525.273438 1075.273438 C 1525.199219 1075.273438 1523.023438 1075.648438 1521.898438 1075.875 C 1520.773438 1076.101562 1518.601562 1076.476562 1518.601562 1076.476562 C 1518.523438 1076.476562 1516.351562 1076.324219 1515.226562 1076.25 C 1514.023438 1076.175781 1511.851562 1076.023438 1511.773438 1076.023438 C 1511.773438 1076.023438 1509.675781 1075.351562 1508.550781 1074.976562 C 1507.5 1074.675781 1505.398438 1074 1505.324219 1074 C 1505.324219 1073.925781 1503.375 1072.800781 1502.476562 1072.199219 C 1501.5 1071.601562 1499.625 1070.476562 1499.550781 1070.476562 C 1499.550781 1070.398438 1497.976562 1068.824219 1497.148438 1068 C 1496.398438 1067.25 1494.824219 1065.675781 1494.75 1065.601562 C 1494.75 1065.601562 1493.625 1063.648438 1493.023438 1062.675781 C 1492.425781 1061.773438 1491.300781 1059.824219 1491.300781 1059.824219 C 1491.300781 1059.75 1490.625 1057.648438 1490.324219 1056.523438 C 1489.949219 1055.476562 1489.351562 1053.375 1489.351562 1053.300781 C 1489.273438 1053.300781 1489.199219 1051.050781 1489.125 1049.925781 C 1489.050781 1048.800781 1488.976562 1046.550781 1488.976562 1046.550781 C 1488.976562 1046.476562 1489.351562 1044.300781 1489.574219 1043.175781 C 1489.800781 1042.125 1490.175781 1039.949219 1490.175781 1039.875 C 1490.25 1039.800781 1491.148438 1037.851562 1491.601562 1036.800781 C 1492.050781 1035.75 1493.023438 1033.726562 1493.023438 1033.726562 C 1493.023438 1033.648438 1494.449219 1031.925781 1495.125 1031.023438 C 1495.800781 1030.125 1497.226562 1028.398438 1497.226562 1028.398438 C 1497.226562 1028.324219 1499.023438 1026.976562 1499.925781 1026.300781 C 1500.824219 1025.625 1502.550781 1024.273438 1502.625 1024.199219 C 1502.699219 1024.125 1535.25 991.273438 1532.175781 985.425781 C 1529.398438 980.101562 1498.949219 987.300781 1490.925781 987.300781 C 1487.625 987.300781 1486.949219 987 1483.875 987.074219 C 1477.949219 987.148438 1468.574219 988.351562 1457.550781 988.875 C 1439.324219 989.851562 1411.351562 990.75 1384.425781 991.125 C 1351.351562 991.574219 1309.574219 992.773438 1273.726562 990.898438 C 1239.824219 989.101562 1203.300781 985.199219 1174.875 980.773438 C 1153.050781 977.398438 1136.023438 975.375 1117.425781 968.773438 C 1098.226562 962.023438 1073.25 952.050781 1061.625 940.351562 C 1053.375 932.101562 1056.300781 918.300781 1047.449219 912.300781 C 1035.226562 903.976562 996.523438 909.675781 986.699219 906.824219 C 983.398438 905.851562 982.199219 903.449219 980.398438 903.449219 C 979.050781 903.449219 978.148438 904.648438 976.949219 905.324219 C 975.675781 906 973.125 907.351562 973.050781 907.351562 C 973.050781 907.425781 970.273438 908.101562 968.851562 908.476562 C 967.425781 908.851562 966.375 909.226562 964.574219 909.523438 C 961.648438 910.125 954 909.375 952.800781 911.175781 C 951.976562 912.375 954.523438 913.875 954 916.5 C 952.050781 926.398438 924.601562 962.699219 907.648438 981.375 C 892.273438 998.398438 873.074219 1013.101562 857.699219 1024.949219 C 845.550781 1034.324219 838.199219 1044.148438 823.726562 1048.199219 C 804.074219 1053.601562 764.851562 1055.101562 747.300781 1043.625 C 731.550781 1033.351562 723.074219 1006.875 719.101562 988.875 C 715.648438 973.273438 728.25 951.824219 720.898438 942.75 C 713.324219 933.523438 683.699219 943.949219 673.125 934.875 C 662.25 925.574219 655.875 898.125 657.300781 886.5 C 658.273438 879.300781 668.023438 876.226562 667.875 870.074219 C 667.648438 861.898438 653.625 852.824219 648.074219 842.023438 C 641.699219 829.574219 636.375 813.300781 633.148438 798.898438 C 630.148438 785.175781 628.875 757.726562 628.875 757.726562 M 1894.125 1050.75 C 1895.773438 1069.800781 1895.175781 1096.425781 1896.074219 1113.601562 C 1896.824219 1129.125 1897.351562 1143.75 1899.675781 1158.148438 C 1901.925781 1172.023438 1906.050781 1184.699219 1909.5 1198.574219 C 1913.175781 1213.199219 1916.851562 1228.800781 1921.199219 1243.648438 C 1925.550781 1258.5 1933.726562 1287.898438 1935.601562 1287.601562 C 1936.726562 1287.449219 1935.523438 1279.050781 1935.898438 1272.375 C 1936.800781 1259.324219 1939.425781 1233.601562 1942.199219 1214.699219 C 1944.976562 1196.101562 1948.875 1177.875 1952.476562 1159.949219 C 1956.074219 1142.550781 1961.773438 1120.425781 1963.726562 1108.648438 C 1964.773438 1102.648438 1966.273438 1099.648438 1965.300781 1094.851562 C 1964.023438 1088.699219 1957.726562 1083.074219 1954.050781 1075.351562 C 1949.023438 1064.851562 1946.175781 1040.925781 1939.351562 1036.875 C 1935.300781 1034.550781 1930.800781 1037.398438 1925.25 1038.75 C 1916.851562 1040.925781 1894.125 1050.75 1894.125 1050.75 " clip-rule="nonzero"/></clipPath></defs><g clip-path="url(#aa5796a724)"><g clip-path="url(#c4a1c2478e)"><path fill="#ffffff" d="M 776.023438 852.601562 L 2247.714844 852.601562 L 2247.714844 2430 L 776.023438 2430 Z M 776.023438 852.601562 " fill-opacity="1" fill-rule="nonzero"/></g></g><g clip-path="url(#595c9ef6f2)"><g clip-path="url(#4a1f07b9ad)"><path fill="#ffffff" d="M 1576.273438 1949.175781 L 1726.613281 1949.175781 L 1726.613281 2072.925781 L 1576.273438 2072.925781 Z M 1576.273438 1949.175781 " fill-opacity="1" fill-rule="nonzero"/></g></g><g clip-path="url(#f683af68e9)"><g clip-path="url(#3f5fcfde1d)"><path fill="#ffffff" d="M 625.875 404.773438 L 2331.886719 404.773438 L 2331.886719 1570.351562 L 625.875 1570.351562 Z M 625.875 404.773438 " fill-opacity="1" fill-rule="nonzero"/></g></g><path fill="#2b2b2b" d="M 1749.9375 1098.632812 C 1690.78125 1098.632812 1642.820312 1146.59375 1642.820312 1205.75 L 1642.820312 1962.707031 C 1642.820312 2021.867188 1690.78125 2069.824219 1749.9375 2069.824219 C 1809.09375 2069.824219 1857.054688 2021.867188 1857.054688 1962.707031 L 1857.054688 1205.75 C 1857.058594 1146.59375 1809.097656 1098.632812 1749.9375 1098.632812 Z M 1749.9375 1098.632812 " fill-opacity="1" fill-rule="nonzero"/><path fill="#2b2b2b" d="M 1500 0 C 671.570312 0 0 671.574219 0 1500 C 0 2328.429688 671.570312 3000 1500 3000 C 2328.429688 3000 3000 2328.429688 3000 1500 C 3000 671.574219 2328.429688 0 1500 0 Z M 2142.703125 955.8125 L 2142.703125 2141.234375 C 2142.703125 2259.550781 2046.785156 2355.464844 1928.472656 2355.464844 L 1071.539062 2355.464844 C 953.21875 2355.464844 857.308594 2259.546875 857.308594 2141.234375 L 857.308594 955.8125 C 778.429688 955.8125 714.484375 891.867188 714.484375 812.988281 C 714.484375 734.109375 778.429688 670.167969 857.308594 670.167969 L 1149.082031 670.167969 C 1168.019531 670.167969 1186.183594 662.644531 1199.578125 649.25 L 1300.570312 548.257812 C 1313.964844 534.867188 1332.121094 527.339844 1351.066406 527.339844 L 1648.960938 527.339844 C 1667.898438 527.339844 1686.0625 534.863281 1699.457031 548.257812 L 1800.449219 649.25 C 1813.84375 662.644531 1832.003906 670.167969 1850.945312 670.167969 L 2142.714844 670.167969 C 2221.59375 670.167969 2285.535156 734.109375 2285.535156 812.988281 C 2285.535156 891.867188 2221.574219 955.8125 2142.703125 955.8125 Z M 2142.703125 955.8125 " fill-opacity="1" fill-rule="nonzero"/><path fill="#2b2b2b" d="M 1250.0625 1098.632812 C 1190.90625 1098.632812 1142.945312 1146.59375 1142.945312 1205.75 L 1142.945312 1962.707031 C 1142.945312 2021.867188 1190.90625 2069.824219 1250.0625 2069.824219 C 1309.21875 2069.824219 1357.175781 2021.867188 1357.175781 1962.707031 L 1357.175781 1205.75 C 1357.175781 1146.59375 1309.21875 1098.632812 1250.0625 1098.632812 Z M 1250.0625 1098.632812 " fill-opacity="1" fill-rule="nonzero"/></svg>